<svg viewBox="0 0 448 153" fill="none" xmlns="http://www.w3.org/2000/svg">
<mask id="path-1-outside-1_241_160" maskUnits="userSpaceOnUse" x="364.096" y="50.7985" width="93.9609" height="95.4119" fill="black">
<rect fill="white" x="364.096" y="50.7985" width="93.9609" height="95.4119"/>
<path d="M423.452 125.166L422.334 125.447C401.202 130.769 386.956 119.012 383.392 104.862C380.04 91.5493 385.926 75.2174 407.151 69.8723C430.238 64.0582 436.443 84.374 437.217 87.4461C438.295 91.7284 437.418 95.7114 432.394 98.9564C428.394 101.548 421.763 104.307 416.969 105.712C415.479 106.087 414.849 105.553 414.196 104.529C412.305 101.738 409.012 96.1328 408.919 95.7604C408.661 94.7364 409.288 94.0834 410.428 93.4993C414.988 91.1631 415.592 90.8128 415.264 89.5095C415.053 88.6717 412.534 86.1381 408.624 87.1228C404.156 88.2481 401.417 93.0957 402.87 98.8675C404.535 105.477 411.251 111.706 422.888 108.775C423.539 108.611 424.284 108.423 424.912 108.166L425.099 108.119C426.402 107.791 428.196 108.23 428.594 109.813C428.828 110.744 428.002 117.684 427.403 121.201C427.033 122.878 426.151 124.486 423.452 125.166Z"/>
</mask>
<path d="M423.452 125.166L422.334 125.447C401.202 130.769 386.956 119.012 383.392 104.862C380.04 91.5493 385.926 75.2174 407.151 69.8723C430.238 64.0582 436.443 84.374 437.217 87.4461C438.295 91.7284 437.418 95.7114 432.394 98.9564C428.394 101.548 421.763 104.307 416.969 105.712C415.479 106.087 414.849 105.553 414.196 104.529C412.305 101.738 409.012 96.1328 408.919 95.7604C408.661 94.7364 409.288 94.0834 410.428 93.4993C414.988 91.1631 415.592 90.8128 415.264 89.5095C415.053 88.6717 412.534 86.1381 408.624 87.1228C404.156 88.2481 401.417 93.0957 402.87 98.8675C404.535 105.477 411.251 111.706 422.888 108.775C423.539 108.611 424.284 108.423 424.912 108.166L425.099 108.119C426.402 107.791 428.196 108.23 428.594 109.813C428.828 110.744 428.002 117.684 427.403 121.201C427.033 122.878 426.151 124.486 423.452 125.166Z" fill="#BEA5A8"/>
<path d="M432.394 98.9564L426.968 90.5565L426.957 90.5635L432.394 98.9564ZM416.969 105.712L419.411 115.409L419.597 115.362L419.781 115.308L416.969 105.712ZM414.196 104.529L422.623 99.146L422.55 99.0321L422.475 98.9202L414.196 104.529ZM410.428 93.4993L405.868 84.5995L405.868 84.5995L410.428 93.4993ZM424.912 108.166L422.47 98.469L421.781 98.6426L421.124 98.9118L424.912 108.166ZM427.403 121.201L437.169 123.353L437.22 123.118L437.261 122.881L427.403 121.201ZM421.01 115.468L419.892 115.75L424.776 135.144L425.894 134.863L421.01 115.468ZM419.892 115.75C411.654 117.824 405.604 116.425 401.471 113.912C397.205 111.318 394.271 107.111 393.09 102.42L373.695 107.304C376.077 116.763 382.048 125.509 391.08 131.001C400.244 136.573 411.882 138.391 424.776 135.144L419.892 115.75ZM393.09 102.42C391.973 97.9857 392.456 93.2902 394.714 89.3811C396.884 85.6255 401.223 81.6773 409.593 79.5695L404.709 60.175C391.854 63.4124 382.638 70.3027 377.396 79.3774C372.243 88.2985 371.459 98.4252 373.695 107.304L393.09 102.42ZM409.593 79.5695C417.543 77.5674 421.205 80.0243 423.328 82.242C426.104 85.1417 427.301 89.0178 427.52 89.8881L446.914 85.004C446.36 82.8023 444.067 74.9844 437.775 68.4118C430.83 61.1571 419.846 56.3631 404.709 60.175L409.593 79.5695ZM427.52 89.8881C427.624 90.3022 427.625 90.4924 427.625 90.5057C427.625 90.5086 427.625 90.4691 427.638 90.3967C427.651 90.3228 427.674 90.233 427.709 90.1369C427.788 89.9213 427.874 89.8274 427.84 89.8669C427.79 89.9246 427.557 90.1758 426.968 90.5565L437.82 107.356C441.707 104.846 444.853 101.462 446.479 97.0435C448.083 92.6826 447.784 88.4588 446.914 85.004L427.52 89.8881ZM426.957 90.5635C424.006 92.4754 418.338 94.8896 414.156 96.1157L419.781 115.308C425.187 113.724 432.782 110.62 437.831 107.349L426.957 90.5635ZM414.527 96.0147C415.181 95.8499 417.325 95.4812 419.774 96.7175C420.861 97.2661 421.599 97.9361 422.033 98.4042C422.245 98.633 422.394 98.8244 422.482 98.9436C422.57 99.0621 422.619 99.1391 422.623 99.146L405.768 109.912C406.293 110.733 407.818 113.086 410.763 114.572C414.063 116.238 417.267 115.949 419.411 115.409L414.527 96.0147ZM422.475 98.9202C421.694 97.7683 420.516 95.8671 419.473 94.1171C418.963 93.2621 418.524 92.5086 418.222 91.9732C418.066 91.6977 417.975 91.5309 417.936 91.4579C417.913 91.4142 417.942 91.4664 417.995 91.5769C418.02 91.6298 418.084 91.7656 418.162 91.9524C418.196 92.0335 418.43 92.5785 418.616 93.3184L399.221 98.2025C399.414 98.9656 399.659 99.5441 399.711 99.6684C399.807 99.8984 399.895 100.087 399.95 100.202C400.063 100.437 400.174 100.651 400.253 100.801C400.42 101.117 400.616 101.471 400.812 101.817C401.212 102.525 401.732 103.417 402.294 104.359C403.393 106.202 404.807 108.499 405.917 110.138L422.475 98.9202ZM418.616 93.3184C418.854 94.2623 418.977 95.5052 418.713 96.9084C418.446 98.3242 417.861 99.495 417.213 100.379C416.601 101.213 415.982 101.728 415.628 101.99C415.271 102.254 415.018 102.384 414.988 102.399L405.868 84.5995C404.864 85.114 402.745 86.2886 401.085 88.5512C398.997 91.3989 398.39 94.8994 399.221 98.2025L418.616 93.3184ZM414.988 102.399C416.74 101.501 419.238 100.273 420.915 98.9346C421.987 98.0797 423.863 96.3354 424.802 93.4343C425.744 90.5237 425.21 88.0555 424.961 87.0675L405.567 91.9516C405.482 91.6152 404.996 89.6796 405.774 87.2742C406.55 84.8784 408.052 83.612 408.443 83.2996C408.807 83.0096 408.944 82.9753 408.327 83.3153C407.792 83.6103 407.041 83.9986 405.868 84.5995L414.988 102.399ZM424.961 87.0675C424.27 84.3198 422.624 82.4706 421.896 81.7132C420.85 80.626 419.559 79.6266 418.064 78.8235C414.954 77.1527 410.8 76.2627 406.182 77.4255L411.066 96.82C410.359 96.9982 409.419 96.8826 408.599 96.442C408.249 96.2539 407.871 95.9835 407.48 95.5761C407.284 95.3731 407.01 95.057 406.715 94.6081C406.492 94.2669 405.918 93.3433 405.567 91.9516L424.961 87.0675ZM406.182 77.4255C395.199 80.1915 390.683 91.4201 393.173 101.31L412.568 96.4255C412.368 95.633 412.588 95.4979 412.428 95.8092C412.355 95.9528 412.208 96.1648 411.953 96.3726C411.693 96.5848 411.382 96.7406 411.066 96.82L406.182 77.4255ZM393.173 101.31C394.584 106.911 398.153 112.448 403.972 115.96C409.94 119.563 417.341 120.484 425.33 118.472L420.446 99.0779C416.798 99.9966 415.022 99.2692 414.307 98.8375C413.443 98.3159 412.821 97.4333 412.568 96.4255L393.173 101.31ZM425.33 118.472C425.824 118.348 427.293 117.997 428.701 117.421L421.124 98.9118C421.209 98.877 421.255 98.8618 421.25 98.8634C421.247 98.8646 421.215 98.8751 421.145 98.8951C420.985 98.9412 420.796 98.9897 420.446 99.0779L425.33 118.472ZM427.354 117.863L427.541 117.817L422.657 98.4221L422.47 98.469L427.354 117.863ZM427.541 117.817C426.321 118.124 424.916 118.117 423.445 117.524C421.726 116.83 419.619 115.125 418.897 112.255L438.291 107.371C437.17 102.919 433.967 100.202 430.926 98.9754C428.133 97.8493 425.18 97.7868 422.657 98.4221L427.541 117.817ZM418.897 112.255C418.691 111.436 418.654 110.811 418.647 110.704C418.64 110.592 418.637 110.509 418.636 110.463C418.635 110.415 418.635 110.386 418.635 110.379C418.635 110.369 418.635 110.404 418.631 110.495C418.627 110.582 418.621 110.699 418.612 110.848C418.572 111.472 418.489 112.371 418.371 113.443C418.135 115.591 417.804 118.003 417.545 119.521L437.261 122.881C437.601 120.882 437.983 118.066 438.251 115.631C438.385 114.413 438.503 113.182 438.57 112.133C438.604 111.619 438.632 111.038 438.635 110.472C438.636 110.269 438.669 108.87 438.291 107.371L418.897 112.255ZM417.637 119.048C417.66 118.945 417.876 118.009 418.746 117.005C419.698 115.908 420.715 115.543 421.01 115.468L425.894 134.863C428.888 134.109 431.696 132.599 433.856 130.109C435.935 127.712 436.776 125.133 437.169 123.353L417.637 119.048Z" fill="#BEA5A8" mask="url(#path-1-outside-1_241_160)"/>
<mask id="path-3-outside-2_241_160" maskUnits="userSpaceOnUse" x="298.023" y="54.6844" width="93.8463" height="85.429" fill="black">
<rect fill="white" x="298.023" y="54.6844" width="93.8463" height="85.429"/>
<path d="M371.698 99.6185L371.499 102.78C371.162 108.146 372.136 112.535 375.836 116.423C376.38 116.939 377.278 117.957 377.212 119.011C377.176 119.586 376.852 120.143 376.151 120.579C376.139 120.771 366.226 126.977 366.226 126.977C365.22 127.683 364.244 127.91 363.381 127.856C361.657 127.748 346.646 121.706 347.719 104.651L347.924 101.394C348.557 91.3335 343.936 86.8105 336.966 85.9874L332.958 120.652C332.897 121.61 331.981 122.418 331.023 122.358L330.831 122.346L311.729 120.183C310.586 120.015 309.873 119.104 309.946 117.954L315.666 68.2955C315.828 67.2476 316.745 66.4395 317.703 66.4998L317.894 66.5118L328.589 67.7616C332.374 67.2301 335.943 67.0699 339.392 67.2868C358.842 68.5101 372.849 81.3187 371.698 99.6185Z"/>
</mask>
<path d="M371.698 99.6185L371.499 102.78C371.162 108.146 372.136 112.535 375.836 116.423C376.38 116.939 377.278 117.957 377.212 119.011C377.176 119.586 376.852 120.143 376.151 120.579C376.139 120.771 366.226 126.977 366.226 126.977C365.22 127.683 364.244 127.91 363.381 127.856C361.657 127.748 346.646 121.706 347.719 104.651L347.924 101.394C348.557 91.3335 343.936 86.8105 336.966 85.9874L332.958 120.652C332.897 121.61 331.981 122.418 331.023 122.358L330.831 122.346L311.729 120.183C310.586 120.015 309.873 119.104 309.946 117.954L315.666 68.2955C315.828 67.2476 316.745 66.4395 317.703 66.4998L317.894 66.5118L328.589 67.7616C332.374 67.2301 335.943 67.0699 339.392 67.2868C358.842 68.5101 372.849 81.3187 371.698 99.6185Z" fill="#BEA5A8"/>
<path d="M375.836 116.423L368.591 123.317L368.773 123.507L368.964 123.689L375.836 116.423ZM376.151 120.579L370.861 112.093L366.494 114.816L366.171 119.952L376.151 120.579ZM366.226 126.977L360.92 118.501L360.697 118.64L360.482 118.792L366.226 126.977ZM336.966 85.9874L338.138 76.0564L328.183 74.8807L327.032 84.8388L336.966 85.9874ZM332.958 120.652L323.024 119.504L322.994 119.763L322.977 120.024L332.958 120.652ZM330.831 122.346L329.706 132.282L329.954 132.311L330.203 132.326L330.831 122.346ZM311.729 120.183L310.275 130.076L310.439 130.1L310.604 130.119L311.729 120.183ZM309.946 117.954L300.011 116.81L299.982 117.068L299.965 117.327L309.946 117.954ZM315.666 68.2955L305.784 66.7667L305.754 66.9584L305.732 67.1511L315.666 68.2955ZM317.894 66.5118L319.055 56.5794L318.789 56.5483L318.522 56.5315L317.894 66.5118ZM328.589 67.7616L327.428 77.694L328.706 77.8433L329.98 77.6645L328.589 67.7616ZM361.718 98.9908L361.519 102.153L381.48 103.408L381.679 100.246L361.718 98.9908ZM361.519 102.153C361.068 109.325 362.391 116.801 368.591 123.317L383.08 109.53C381.881 108.27 381.256 106.966 381.48 103.408L361.519 102.153ZM368.964 123.689C368.908 123.636 368.623 123.371 368.295 122.85C368.036 122.439 367.078 120.825 367.232 118.383L387.192 119.639C387.412 116.143 386.039 113.493 385.211 112.181C384.314 110.758 383.308 109.726 382.707 109.158L368.964 123.689ZM367.232 118.383C367.322 116.948 367.784 115.568 368.551 114.39C369.298 113.243 370.18 112.518 370.861 112.093L381.442 129.066C384.365 127.243 386.918 124 387.192 119.639L367.232 118.383ZM366.171 119.952C366.249 118.706 366.546 117.718 366.784 117.081C367.029 116.426 367.3 115.91 367.503 115.56C367.897 114.883 368.287 114.398 368.489 114.157C368.904 113.665 369.272 113.327 369.397 113.213C369.695 112.943 369.932 112.763 369.967 112.737C370.088 112.644 370.139 112.612 370.038 112.681C369.873 112.795 369.571 112.997 369.123 113.29C368.249 113.862 367.053 114.627 365.822 115.409C364.599 116.186 363.373 116.96 362.45 117.54C361.99 117.83 361.606 118.071 361.338 118.239C361.204 118.323 361.099 118.389 361.027 118.434C360.992 118.456 360.965 118.473 360.947 118.484C360.937 118.49 360.931 118.494 360.926 118.497C360.924 118.498 360.922 118.499 360.921 118.5C360.921 118.5 360.92 118.501 360.92 118.501C360.92 118.501 360.92 118.501 360.92 118.501C360.92 118.501 360.92 118.501 366.226 126.977C371.532 135.453 371.533 135.453 371.533 135.453C371.533 135.453 371.533 135.453 371.533 135.453C371.534 135.452 371.534 135.452 371.535 135.452C371.536 135.451 371.538 135.45 371.541 135.448C371.546 135.445 371.553 135.44 371.563 135.434C371.582 135.422 371.611 135.404 371.648 135.381C371.722 135.335 371.829 135.267 371.967 135.181C372.241 135.009 372.632 134.764 373.1 134.469C374.037 133.879 375.29 133.089 376.547 132.291C377.795 131.497 379.08 130.675 380.068 130.03C380.551 129.714 381.025 129.4 381.405 129.137C381.576 129.019 381.841 128.834 382.109 128.629C382.217 128.546 382.511 128.321 382.846 128.016C382.991 127.885 383.374 127.532 383.798 127.028C384.005 126.781 384.399 126.291 384.795 125.61C385.085 125.111 385.987 123.504 386.132 121.207L366.171 119.952ZM360.482 118.792C360.821 118.554 361.318 118.285 361.969 118.096C362.621 117.907 363.315 117.832 364.009 117.876L362.754 137.836C365.984 138.04 369.191 137.113 371.971 135.162L360.482 118.792ZM364.009 117.876C364.879 117.931 365.463 118.096 365.48 118.101C365.623 118.139 365.663 118.157 365.592 118.132C365.457 118.082 365.129 117.949 364.665 117.709C363.73 117.223 362.531 116.448 361.402 115.371C359.318 113.384 357.38 110.362 357.699 105.279L337.739 104.023C336.986 115.994 342.017 124.521 347.6 129.846C350.305 132.425 353.116 134.247 355.446 135.457C356.615 136.064 357.735 136.555 358.746 136.923C359.409 137.165 360.994 137.726 362.754 137.836L364.009 117.876ZM357.699 105.279L357.904 102.021L337.944 100.766L337.739 104.023L357.699 105.279ZM357.904 102.021C358.316 95.4745 357.117 89.1113 353.174 84.0678C349.154 78.9257 343.488 76.6882 338.138 76.0564L335.793 95.9184C336.619 96.0159 337.067 96.1882 337.26 96.2836C337.352 96.3294 337.391 96.3603 337.399 96.3668C337.406 96.372 337.409 96.3746 337.418 96.3855C337.419 96.3871 337.588 96.5934 337.746 97.2353C337.91 97.9089 338.052 99.0374 337.944 100.766L357.904 102.021ZM327.032 84.8388L323.024 119.504L342.891 121.801L346.899 87.1359L327.032 84.8388ZM322.977 120.024C323.136 117.5 324.365 115.575 325.714 114.386C327.062 113.197 329.126 112.219 331.65 112.378L330.395 132.338C336.865 132.745 342.531 127.75 342.938 121.28L322.977 120.024ZM331.65 112.378L331.459 112.366L330.203 132.326L330.395 132.338L331.65 112.378ZM331.956 112.41L312.855 110.246L310.604 130.119L329.706 132.282L331.956 112.41ZM313.184 110.289C314.959 110.55 316.838 111.489 318.209 113.213C319.565 114.919 320.032 116.897 319.926 118.582L299.965 117.327C299.577 123.499 303.821 129.128 310.275 130.076L313.184 110.289ZM319.88 119.099L325.6 69.4398L305.732 67.1511L300.011 116.81L319.88 119.099ZM325.549 69.8242C325.257 71.7113 324.308 73.3291 322.999 74.483C321.701 75.6279 319.642 76.6415 317.075 76.48L318.331 56.5195C311.414 56.0845 306.608 61.4363 305.784 66.7667L325.549 69.8242ZM317.075 76.48L317.267 76.4921L318.522 56.5315L318.331 56.5195L317.075 76.48ZM316.734 76.4442L327.428 77.694L329.75 57.8292L319.055 56.5794L316.734 76.4442ZM329.98 77.6645C333.175 77.2157 336.064 77.0973 338.764 77.2671L340.02 57.3065C335.822 57.0425 331.572 57.2446 327.199 57.8588L329.98 77.6645ZM338.764 77.2671C346.504 77.7539 352.481 80.497 356.291 84.2102C359.978 87.8037 362.112 92.7301 361.718 98.9908L381.679 100.246C382.436 88.2071 378.142 77.5793 370.25 69.8878C362.482 62.3159 351.73 58.0431 340.02 57.3065L338.764 77.2671Z" fill="#BEA5A8" mask="url(#path-3-outside-2_241_160)"/>
<mask id="path-5-outside-3_241_160" maskUnits="userSpaceOnUse" x="246.374" y="27.0581" width="67.4195" height="115.65" fill="black">
<rect fill="white" x="246.374" y="27.0581" width="67.4195" height="115.65"/>
<path d="M288.618 127.364L268.638 126.031L268.439 126.008C267.347 125.88 266.657 124.893 266.685 123.789L269.866 75.1287C270.006 73.9368 270.905 73.1359 272.108 73.1762L292.089 74.5089L292.287 74.5322C293.281 74.6485 294.07 75.647 293.954 76.6403L290.761 125.4L290.738 125.599C290.622 126.592 289.623 127.381 288.618 127.364ZM297.671 58.6505C296.729 66.6955 289.406 72.4832 281.361 71.5412C273.217 70.5875 267.429 63.2648 268.371 55.2197C269.325 47.0754 276.648 41.2877 284.792 42.2414C292.837 43.1834 298.625 50.5062 297.671 58.6505Z"/>
</mask>
<path d="M288.618 127.364L268.638 126.031L268.439 126.008C267.347 125.88 266.657 124.893 266.685 123.789L269.866 75.1287C270.006 73.9368 270.905 73.1359 272.108 73.1762L292.089 74.5089L292.287 74.5322C293.281 74.6485 294.07 75.647 293.954 76.6403L290.761 125.4L290.738 125.599C290.622 126.592 289.623 127.381 288.618 127.364ZM297.671 58.6505C296.729 66.6955 289.406 72.4832 281.361 71.5412C273.217 70.5875 267.429 63.2648 268.371 55.2197C269.325 47.0754 276.648 41.2877 284.792 42.2414C292.837 43.1834 298.625 50.5062 297.671 58.6505Z" fill="#BEA5A8"/>
<path d="M288.618 127.364L287.82 139.337L288.117 139.357L288.416 139.362L288.618 127.364ZM268.638 126.031L267.242 137.95L267.54 137.985L267.839 138.005L268.638 126.031ZM266.685 123.789L254.711 123.006L254.695 123.242L254.689 123.478L266.685 123.789ZM269.866 75.1287L257.947 73.7331L257.912 74.0388L257.892 74.346L269.866 75.1287ZM272.108 73.1762L272.907 61.2028L272.708 61.1895L272.509 61.1829L272.108 73.1762ZM292.089 74.5089L293.484 62.5904L293.187 62.5555L292.888 62.5355L292.089 74.5089ZM293.954 76.6403L282.035 75.2447L281.999 75.5498L281.979 75.8563L293.954 76.6403ZM290.761 125.4L302.68 126.795L302.716 126.49L302.736 126.184L290.761 125.4ZM289.417 115.391L269.436 114.058L267.839 138.005L287.82 139.337L289.417 115.391ZM270.033 114.113L269.835 114.089L267.044 137.927L267.242 137.95L270.033 114.113ZM269.835 114.089C276.212 114.836 278.777 120.407 278.681 124.1L254.689 123.478C254.536 129.379 258.481 136.924 267.044 137.927L269.835 114.089ZM278.66 124.572L281.84 75.9114L257.892 74.346L254.711 123.006L278.66 124.572ZM281.785 76.5242C281.538 78.6269 280.524 80.9385 278.498 82.7149C276.451 84.5088 273.951 85.2445 271.707 85.1695L272.509 61.1829C264.869 60.9274 258.789 66.5429 257.947 73.7331L281.785 76.5242ZM271.31 85.1496L291.29 86.4823L292.888 62.5355L272.907 61.2028L271.31 85.1496ZM290.693 86.4275L290.892 86.4508L293.683 62.6136L293.484 62.5904L290.693 86.4275ZM290.892 86.4508C287.802 86.089 285.506 84.4494 284.122 82.6983C282.738 80.9472 281.673 78.3346 282.035 75.2447L305.872 78.0358C306.759 70.4601 301.259 63.5007 293.683 62.6136L290.892 86.4508ZM281.979 75.8563L278.787 124.616L302.736 126.184L305.928 77.4242L281.979 75.8563ZM278.843 124.004L278.82 124.203L302.657 126.994L302.68 126.795L278.843 124.004ZM278.82 124.203C279.184 121.088 280.831 118.868 282.407 117.578C283.974 116.293 286.184 115.321 288.821 115.366L288.416 139.362C294.876 139.471 301.744 134.79 302.657 126.994L278.82 124.203ZM285.752 57.2549C285.581 58.7175 284.219 59.7939 282.757 59.6226L279.966 83.4598C294.593 85.1725 307.877 74.6736 309.59 60.0461L285.752 57.2549ZM282.757 59.6226C281.142 59.4336 280.125 58.0253 280.29 56.6153L256.453 53.8242C254.734 68.5042 265.292 81.7415 279.966 83.4598L282.757 59.6226ZM280.29 56.6153C280.473 55.0534 281.834 53.977 283.396 54.1599L286.188 30.3228C271.461 28.5984 258.177 39.0973 256.453 53.8242L280.29 56.6153ZM283.396 54.1599C284.806 54.325 285.942 55.6403 285.752 57.2549L309.59 60.0461C311.308 45.372 300.868 32.0417 286.188 30.3228L283.396 54.1599Z" fill="#BEA5A8" mask="url(#path-5-outside-3_241_160)"/>
<mask id="path-7-outside-4_241_160" maskUnits="userSpaceOnUse" x="198.704" y="37.6022" width="70.7094" height="105.126" fill="black">
<rect fill="white" x="198.704" y="37.6022" width="70.7094" height="105.126"/>
<path d="M215.68 128.142L212.417 114.394C212.322 114.212 212.317 113.936 212.314 113.752C212.291 112.372 213.663 111.889 214.215 111.88L214.583 111.874C220.838 111.771 227.591 108.347 227.495 102.551C227.445 99.5159 225.743 96.7836 220.648 89.1388C216.783 83.4979 215.042 78.374 214.967 73.8666C214.727 59.3326 231.149 50.872 246.603 50.6166C250.191 50.5573 252.037 50.8948 252.621 52.8174L256.065 66.3783C256.162 66.6528 256.166 66.9288 256.169 67.1127C256.194 68.5845 254.823 69.1593 254.271 69.1684L253.719 69.1775C247.74 69.2763 242.165 71.5768 242.252 76.8201C242.303 79.9476 244.675 84.233 249.005 90.1423C252.963 95.7816 254.704 100.906 254.78 105.505C255.032 120.775 236.875 130.092 220.962 130.355C220.042 130.37 219.214 130.384 218.292 130.307C217.097 130.327 215.976 129.333 215.68 128.142Z"/>
</mask>
<path d="M215.68 128.142L212.417 114.394C212.322 114.212 212.317 113.936 212.314 113.752C212.291 112.372 213.663 111.889 214.215 111.88L214.583 111.874C220.838 111.771 227.591 108.347 227.495 102.551C227.445 99.5159 225.743 96.7836 220.648 89.1388C216.783 83.4979 215.042 78.374 214.967 73.8666C214.727 59.3326 231.149 50.872 246.603 50.6166C250.191 50.5573 252.037 50.8948 252.621 52.8174L256.065 66.3783C256.162 66.6528 256.166 66.9288 256.169 67.1127C256.194 68.5845 254.823 69.1593 254.271 69.1684L253.719 69.1775C247.74 69.2763 242.165 71.5768 242.252 76.8201C242.303 79.9476 244.675 84.233 249.005 90.1423C252.963 95.7816 254.704 100.906 254.78 105.505C255.032 120.775 236.875 130.092 220.962 130.355C220.042 130.37 219.214 130.384 218.292 130.307C217.097 130.327 215.976 129.333 215.68 128.142Z" fill="#BEA5A8"/>
<path d="M215.68 128.142L204.005 130.914L204.019 130.974L204.034 131.033L215.68 128.142ZM212.417 114.394L224.092 111.623L223.748 110.173L223.06 108.851L212.417 114.394ZM220.648 89.1388L230.634 82.4838L230.591 82.4192L230.547 82.3552L220.648 89.1388ZM252.621 52.8174L264.251 49.8631L264.183 49.5951L264.103 49.3305L252.621 52.8174ZM256.065 66.3783L244.434 69.3326L244.567 69.8537L244.745 70.3608L256.065 66.3783ZM249.005 90.1423L258.827 83.2488L258.757 83.1483L258.684 83.0493L249.005 90.1423ZM218.292 130.307L219.289 118.349L218.693 118.299L218.094 118.309L218.292 130.307ZM227.356 125.371L224.092 111.623L200.741 117.166L204.005 130.914L227.356 125.371ZM223.06 108.851C223.573 109.837 223.843 110.706 223.991 111.285C224.142 111.878 224.213 112.368 224.25 112.682C224.316 113.25 224.315 113.712 224.312 113.554L200.316 113.95C200.316 113.975 200.319 114.668 200.412 115.465C200.49 116.131 200.732 117.938 201.774 119.938L223.06 108.851ZM224.312 113.554C224.379 117.573 222.15 120.538 220.056 122.044C219.126 122.713 218.218 123.121 217.45 123.376C216.756 123.605 215.729 123.857 214.414 123.879L214.017 99.8819C211.305 99.9267 208.446 100.831 206.042 102.56C203.13 104.655 200.226 108.551 200.316 113.95L224.312 113.554ZM214.414 123.879L214.782 123.872L214.385 99.8758L214.017 99.8819L214.414 123.879ZM214.782 123.872C219.796 123.79 225.32 122.417 229.948 119.417C234.684 116.346 239.63 110.634 239.493 102.353L215.497 102.75C215.48 101.723 215.799 100.749 216.247 100.038C216.64 99.4149 216.981 99.2213 216.893 99.2777C216.814 99.329 216.522 99.491 215.997 99.6391C215.482 99.7842 214.915 99.867 214.385 99.8758L214.782 123.872ZM239.493 102.353C239.426 98.2625 238.135 94.9159 236.569 91.9586C235.156 89.2906 233.073 86.1435 230.634 82.4838L210.663 95.7938C213.319 99.7789 214.634 101.82 215.358 103.189C215.93 104.268 215.514 103.805 215.497 102.75L239.493 102.353ZM230.547 82.3552C227.605 78.0629 226.991 75.1936 226.966 73.6683L202.969 74.0649C203.093 81.5543 205.96 88.9329 210.75 95.9224L230.547 82.3552ZM226.966 73.6683C226.932 71.6329 227.863 69.309 231.509 66.9032C235.311 64.3946 240.968 62.7114 246.802 62.6149L246.405 38.6182C236.785 38.7772 226.504 41.452 218.291 46.871C209.922 52.3929 202.762 61.5663 202.969 74.0649L226.966 73.6683ZM246.802 62.6149C247.539 62.6027 247.901 62.6178 248.045 62.629C248.219 62.6425 247.785 62.6302 247.052 62.3935C246.247 62.1336 244.904 61.5449 243.595 60.2785C242.238 58.9664 241.498 57.4876 241.138 56.3043L264.103 49.3305C263.451 47.186 262.261 44.944 260.282 43.0297C258.351 41.1611 256.213 40.1313 254.425 39.5541C251.333 38.5559 248.135 38.5896 246.405 38.6182L246.802 62.6149ZM240.99 55.7717L244.434 69.3326L267.696 63.4241L264.251 49.8631L240.99 55.7717ZM244.745 70.3608C244.402 69.3856 244.275 68.5648 244.221 68.0633C244.169 67.5834 244.169 67.1979 244.171 67.311L268.168 66.9144C268.166 66.824 268.205 64.7276 267.385 62.3959L244.745 70.3608ZM244.171 67.311C244.112 63.7422 245.941 60.9269 247.913 59.3399C248.798 58.6285 249.704 58.1509 250.542 57.8326C251.27 57.556 252.478 57.1964 254.073 57.17L254.469 81.1667C257.678 81.1137 260.687 79.8661 262.959 78.0382C265.749 75.7936 268.251 71.9551 268.168 66.9144L244.171 67.311ZM254.073 57.17L253.521 57.1791L253.917 81.1759L254.469 81.1667L254.073 57.17ZM253.521 57.1791C249.331 57.2484 244.188 58.065 239.663 60.7048C234.638 63.6369 230.123 69.1549 230.253 77.0184L254.25 76.6217C254.266 77.5716 253.995 78.7566 253.307 79.8433C252.677 80.8401 251.986 81.3016 251.758 81.4345C251.547 81.5579 251.605 81.48 252.068 81.374C252.509 81.2732 253.137 81.1888 253.917 81.1759L253.521 57.1791ZM230.253 77.0184C230.324 81.3059 231.895 85.1133 233.369 87.9592C234.926 90.9625 237.017 94.0843 239.326 97.2352L258.684 83.0493C256.663 80.291 255.403 78.3155 254.678 76.9169C253.872 75.3609 254.231 75.4618 254.25 76.6217L230.253 77.0184ZM239.182 97.0357C242.143 101.254 242.755 104.09 242.781 105.703L266.778 105.307C266.653 97.7209 263.782 90.3091 258.827 83.2488L239.182 97.0357ZM242.781 105.703C242.818 107.905 241.679 110.679 237.341 113.53C232.949 116.418 226.702 118.259 220.763 118.357L221.16 142.354C231.135 142.189 241.923 139.24 250.525 133.585C259.181 127.895 266.994 118.374 266.778 105.307L242.781 105.703ZM220.763 118.357C219.777 118.373 219.526 118.369 219.289 118.349L217.296 142.266C218.902 142.4 220.307 142.368 221.16 142.354L220.763 118.357ZM218.094 118.309C220.909 118.262 223.068 119.391 224.401 120.519C225.731 121.644 226.828 123.242 227.327 125.251L204.034 131.033C205.438 136.692 210.779 142.433 218.491 142.306L218.094 118.309Z" fill="#BEA5A8" mask="url(#path-7-outside-4_241_160)"/>
<mask id="path-9-outside-5_241_160" maskUnits="userSpaceOnUse" x="119.795" y="49.9472" width="97.8363" height="94.0146" fill="black">
<rect fill="white" x="119.795" y="49.9472" width="97.8363" height="94.0146"/>
<path d="M203.611 98.4782C202.693 119.518 180.816 130.346 165.494 129.677C147.907 128.909 133.033 115.504 133.863 96.5139C134.833 74.2871 151.953 63.4676 170.943 64.2967C194.788 65.3378 204.224 84.4515 203.611 98.4782ZM168.983 109.182C176.644 109.516 180.37 103.409 180.639 97.259C180.728 95.2089 180.754 84.724 169.748 84.2435C160.685 83.8478 157.761 91.3955 157.549 96.2508C157.224 103.696 162.833 108.913 168.983 109.182Z"/>
</mask>
<path d="M203.611 98.4782C202.693 119.518 180.816 130.346 165.494 129.677C147.907 128.909 133.033 115.504 133.863 96.5139C134.833 74.2871 151.953 63.4676 170.943 64.2967C194.788 65.3378 204.224 84.4515 203.611 98.4782ZM168.983 109.182C176.644 109.516 180.37 103.409 180.639 97.259C180.728 95.2089 180.754 84.724 169.748 84.2435C160.685 83.8478 157.761 91.3955 157.549 96.2508C157.224 103.696 162.833 108.913 168.983 109.182Z" fill="#BEA5A8"/>
<path d="M191.623 97.9548C191.361 103.961 188.223 108.78 183.069 112.39C177.675 116.169 170.968 117.905 166.018 117.689L164.971 141.666C175.342 142.119 187.234 138.775 196.839 132.047C206.683 125.151 214.943 114.036 215.6 99.0016L191.623 97.9548ZM166.018 117.689C154.06 117.167 145.353 108.456 145.851 97.0374L121.874 95.9905C120.714 122.551 141.754 140.652 164.971 141.666L166.018 117.689ZM145.851 97.0374C146.195 89.1676 149.232 84.2347 153.108 81.1571C157.219 77.8929 163.255 75.9725 170.42 76.2853L171.467 52.3081C159.641 51.7918 147.623 54.8665 138.184 62.3616C128.509 70.0432 122.501 81.6334 121.874 95.9905L145.851 97.0374ZM170.42 76.2853C178.877 76.6545 183.944 80.0467 187.033 83.9567C190.384 88.1993 191.813 93.608 191.623 97.9548L215.6 99.0016C216.023 89.3217 213.039 78.1602 205.865 69.0791C198.428 59.6653 186.855 52.98 171.467 52.3081L170.42 76.2853ZM168.46 121.171C175.973 121.499 182.384 118.514 186.713 113.44C190.735 108.725 192.403 102.911 192.627 97.7824L168.65 96.7355C168.631 97.1724 168.552 97.527 168.469 97.7607C168.386 97.994 168.342 97.9954 168.454 97.8641C168.513 97.7947 168.609 97.6966 168.748 97.592C168.89 97.4857 169.05 97.3915 169.217 97.3188C169.385 97.2459 169.518 97.2126 169.594 97.1994C169.666 97.1866 169.645 97.1994 169.507 97.1934L168.46 121.171ZM192.627 97.7824C192.696 96.214 192.834 90.7249 190.246 85.1267C188.866 82.1422 186.604 78.8976 182.995 76.3664C179.341 73.8044 175 72.4614 170.271 72.255L169.225 96.2321C169.647 96.2505 169.786 96.3062 169.723 96.286C169.65 96.2626 169.457 96.1862 169.216 96.0169C168.978 95.8501 168.787 95.6597 168.651 95.4881C168.522 95.3252 168.469 95.2136 168.462 95.1986C168.456 95.1871 168.483 95.2429 168.519 95.3809C168.554 95.5177 168.587 95.6903 168.612 95.8903C168.663 96.3064 168.654 96.6428 168.65 96.7355L192.627 97.7824ZM170.271 72.255C161.771 71.8838 155.067 75.4664 150.837 80.9368C147.049 85.8338 145.743 91.5284 145.56 95.7274L169.537 96.7743C169.541 96.693 169.552 96.5638 169.58 96.4042C169.608 96.2458 169.647 96.0896 169.693 95.9475C169.738 95.8053 169.783 95.7034 169.814 95.6414C169.845 95.5799 169.853 95.5782 169.821 95.6193C169.788 95.6629 169.712 95.7507 169.586 95.8543C169.457 95.961 169.304 96.0591 169.143 96.1346C168.981 96.2106 168.87 96.2359 168.845 96.2405C168.825 96.2444 168.94 96.2197 169.225 96.2321L170.271 72.255ZM145.56 95.7274C144.934 110.069 155.968 120.625 168.46 121.171L169.507 97.1934C169.582 97.1966 169.613 97.2125 169.609 97.2106C169.604 97.2084 169.593 97.2012 169.585 97.1925C169.582 97.1897 169.579 97.1868 169.572 97.1693C169.568 97.158 169.558 97.1279 169.549 97.0724C169.541 97.0172 169.531 96.9203 169.537 96.7743L145.56 95.7274Z" fill="#BEA5A8" mask="url(#path-9-outside-5_241_160)"/>
<mask id="path-11-outside-6_241_160" maskUnits="userSpaceOnUse" x="6.03835" y="5.80783" width="138.356" height="148.263" fill="black">
<rect fill="white" x="6.03835" y="5.80783" width="138.356" height="148.263"/>
<path d="M119.992 92.125L130.665 110.787C131.234 111.762 131.663 112.738 131.672 113.718C131.684 114.978 131.136 116.243 129.61 117.797C114.353 133.339 96.6378 140.364 79.8385 140.519C47.7799 140.816 19.2728 116.439 18.9433 80.8809C18.5502 38.4627 50.1524 19.1291 83.331 18.8216C95.7904 18.7061 107.577 21.537 116.169 27.0577C117.155 27.7485 117.869 29.282 117.882 30.6819C117.886 31.1019 117.889 31.3819 117.753 31.8032L110.118 53.9949C109.708 55.1187 108.32 56.3917 106.78 56.4059C106.22 56.4111 105.659 56.2763 105.236 56.0002C100.871 53.2405 93.0089 50.9333 85.0293 51.0072C67.39 51.1707 57.2717 62.1849 57.4299 79.2642C57.583 95.7835 70.1307 105.188 84.8301 105.051C94.6296 104.961 105.649 100.518 114.382 91.057C114.936 90.4918 115.774 90.204 116.474 90.1976C117.874 90.1846 119.421 91.0103 119.992 92.125Z"/>
</mask>
<path d="M119.992 92.125L130.665 110.787C131.234 111.762 131.663 112.738 131.672 113.718C131.684 114.978 131.136 116.243 129.61 117.797C114.353 133.339 96.6378 140.364 79.8385 140.519C47.7799 140.816 19.2728 116.439 18.9433 80.8809C18.5502 38.4627 50.1524 19.1291 83.331 18.8216C95.7904 18.7061 107.577 21.537 116.169 27.0577C117.155 27.7485 117.869 29.282 117.882 30.6819C117.886 31.1019 117.889 31.3819 117.753 31.8032L110.118 53.9949C109.708 55.1187 108.32 56.3917 106.78 56.4059C106.22 56.4111 105.659 56.2763 105.236 56.0002C100.871 53.2405 93.0089 50.9333 85.0293 51.0072C67.39 51.1707 57.2717 62.1849 57.4299 79.2642C57.583 95.7835 70.1307 105.188 84.8301 105.051C94.6296 104.961 105.649 100.518 114.382 91.057C114.936 90.4918 115.774 90.204 116.474 90.1976C117.874 90.1846 119.421 91.0103 119.992 92.125Z" fill="#BEA5A8"/>
<path d="M119.992 92.125L109.309 97.5908L109.436 97.8399L109.575 98.0827L119.992 92.125ZM130.665 110.787L120.249 116.745L120.275 116.791L120.302 116.837L130.665 110.787ZM129.61 117.797L138.174 126.203L138.174 126.203L129.61 117.797ZM116.169 27.0577L123.053 17.2286L122.857 17.0915L122.656 16.9622L116.169 27.0577ZM117.753 31.8032L129.1 35.707L129.137 35.6L129.172 35.4922L117.753 31.8032ZM110.118 53.9949L121.393 58.104L121.43 58.0017L121.465 57.8987L110.118 53.9949ZM105.236 56.0002L111.8 45.9543L111.724 45.905L111.648 45.8568L105.236 56.0002ZM114.382 91.057L105.818 82.6508L105.689 82.7824L105.564 82.918L114.382 91.057ZM109.575 98.0827L120.249 116.745L141.082 104.829L130.408 86.1674L109.575 98.0827ZM120.302 116.837C120.393 116.994 120.27 116.81 120.116 116.391C119.955 115.953 119.684 115.055 119.673 113.829L143.672 113.607C143.633 109.375 141.845 106.136 141.028 104.737L120.302 116.837ZM119.673 113.829C119.661 112.54 119.969 111.334 120.435 110.38C120.839 109.555 121.21 109.224 121.047 109.391L138.174 126.203C140.995 123.329 143.723 119.171 143.672 113.607L119.673 113.829ZM121.047 109.391C107.857 122.827 93.1194 128.396 79.7273 128.52L79.9497 152.519C100.156 152.331 120.85 143.851 138.174 126.203L121.047 109.391ZM79.7273 128.52C53.7975 128.76 31.2063 109.213 30.9427 80.7697L6.94378 80.9921C7.33922 123.665 41.7623 152.873 79.9497 152.519L79.7273 128.52ZM30.9427 80.7697C30.7768 62.8657 37.22 50.9188 46.3085 43.2123C55.7111 35.2396 68.9926 30.955 83.4422 30.8211L83.2198 6.82211C64.4907 6.99566 45.3819 12.5316 30.787 24.9071C15.878 37.5489 6.71661 56.4779 6.94378 80.9921L30.9427 80.7697ZM83.4422 30.8211C94.2353 30.7211 103.555 33.2162 109.682 37.1531L122.656 16.9622C111.6 9.85785 97.3455 6.69121 83.2198 6.82211L83.4422 30.8211ZM109.285 36.8867C107.618 35.7193 106.855 34.3979 106.533 33.7147C106.176 32.9547 105.894 31.9911 105.883 30.7931L129.882 30.5707C129.858 27.9729 129.213 25.5425 128.248 23.4931C127.319 21.5205 125.706 19.0869 123.053 17.2286L109.285 36.8867ZM105.883 30.7931C105.884 30.93 105.883 30.8779 105.884 30.8006C105.886 30.6971 105.891 30.4647 105.919 30.1587C105.984 29.4422 106.13 28.7438 106.334 28.1142L129.172 35.4922C129.952 33.0781 129.887 31.102 129.882 30.5707L105.883 30.7931ZM106.405 27.8993L98.7708 50.0911L121.465 57.8987L129.1 35.707L106.405 27.8993ZM98.8435 49.8858C99.5338 47.9917 100.62 46.8345 101.496 46.1522C102.432 45.4221 104.182 44.4295 106.669 44.4064L106.891 68.4054C110.918 68.3681 114.132 66.7319 116.25 65.0808C118.307 63.4775 120.293 61.122 121.393 58.104L98.8435 49.8858ZM106.669 44.4064C107.889 44.3951 109.798 44.6462 111.8 45.9543L98.6729 66.0461C101.52 67.9064 104.551 68.4271 106.891 68.4054L106.669 44.4064ZM111.648 45.8568C105.023 41.669 94.8109 38.9161 84.9181 39.0078L85.1405 63.0067C87.9808 62.9804 90.8871 63.3836 93.4676 64.0548C96.1281 64.7467 97.9577 65.5956 98.8246 66.1436L111.648 45.8568ZM84.9181 39.0078C73.5807 39.1128 63.2997 42.7762 55.9008 50.4799C48.541 58.1428 45.3292 68.453 45.4305 79.3754L69.4294 79.153C69.3724 72.9961 71.1406 69.2595 73.2103 67.1047C75.2408 64.9905 78.8386 63.0651 85.1405 63.0067L84.9181 39.0078ZM45.4305 79.3754C45.537 90.8721 50.0673 100.646 57.7429 107.408C65.2558 114.026 75.0574 117.142 84.9413 117.051L84.7189 93.0519C79.9034 93.0965 76.0815 91.5787 73.6074 89.3992C71.296 87.363 69.476 84.1756 69.4294 79.153L45.4305 79.3754ZM84.9413 117.051C98.2099 116.928 112.331 110.971 123.2 99.1959L105.564 82.918C98.9666 90.0655 91.0494 92.9933 84.7189 93.0519L84.9413 117.051ZM122.945 99.4632C121.848 100.581 120.685 101.225 119.749 101.592C118.818 101.956 117.76 102.186 116.585 102.197L116.363 78.1981C112.995 78.2293 108.939 79.4717 105.818 82.6508L122.945 99.4632ZM116.585 102.197C115.008 102.212 113.751 101.791 112.814 101.282C111.947 100.811 110.41 99.7428 109.309 97.5908L130.675 86.6592C129.003 83.3925 126.407 81.3543 124.274 80.195C122.07 78.9973 119.34 78.1705 116.363 78.1981L116.585 102.197Z" fill="#BEA5A8" mask="url(#path-11-outside-6_241_160)"/>
<g clip-path="url(#clip0_241_160)">
<path d="M366.296 64.4103C367.419 64.0617 368.495 63.5647 369.523 62.9323C369.51 63.8289 369.589 64.7262 369.76 65.6217C370.112 67.465 370.83 69.1619 371.907 70.6888C373.054 72.3807 374.535 73.7328 376.325 74.7239L378.431 75.8903L379.676 73.8294L380.777 72.0066L382.441 72.7285L384.519 73.6302L385.621 71.65C386.749 69.6204 387.303 67.4497 387.229 65.1778L387.229 65.169L387.229 65.1603C387.191 64.2092 387.048 63.2642 386.806 62.3273C387.705 62.568 388.63 62.7168 389.578 62.7737C391.474 62.8873 393.336 62.6208 395.145 61.9851L395.147 61.9843C397.088 61.3002 398.798 60.2206 400.252 58.7616L402.009 56.9992L400.254 55.2343L398.849 53.82L399.964 52.4594L401.464 50.6288L399.718 49.0308C398.028 47.484 396.04 46.46 393.797 45.9774L393.792 45.9764C392.912 45.7889 392.01 45.6929 391.088 45.6819C391.589 44.8701 392.002 44.0052 392.325 43.0897C392.949 41.3202 393.21 39.493 393.101 37.6271L393.1 37.6009L393.098 37.5749C392.937 35.55 392.332 33.653 391.288 31.9138L390.054 29.8565L387.948 31.005L386.067 32.0304L385.028 30.6192L383.655 28.7544L381.691 29.981C379.727 31.2071 378.176 32.8281 377.087 34.8301L377.083 34.8375C376.962 35.062 376.847 35.2899 376.739 35.521C376.652 35.4156 376.563 35.3112 376.473 35.2079C375.23 33.7895 373.725 32.6801 371.986 31.8816L371.984 31.8809C370.14 31.0355 368.179 30.6188 366.129 30.6255L363.693 30.6335L363.638 33.0686L363.591 35.1274L361.755 35.3185L359.44 35.5593L359.515 37.8858C359.59 40.2038 360.237 42.3489 361.476 44.2616C362.104 45.2337 362.864 46.1189 363.741 46.9213C362.973 47.142 362.221 47.4297 361.488 47.7838C359.779 48.6089 358.288 49.7348 357.029 51.151L357.011 51.1707L356.994 51.1907C355.656 52.7613 354.722 54.5568 354.207 56.5521L353.594 58.927L355.957 59.5853L357.971 60.1463L357.685 61.8327L357.288 64.1802L359.614 64.6915C361.875 65.1887 364.118 65.1019 366.296 64.4103Z" fill="#BEA5A8" stroke="#BEA5A8" stroke-width="5"/>
</g>
<mask id="path-14-outside-7_241_160" maskUnits="userSpaceOnUse" x="358.096" y="44.7985" width="93.9609" height="95.4119" fill="black">
<rect fill="white" x="358.096" y="44.7985" width="93.9609" height="95.4119"/>
<path d="M417.452 119.166L416.334 119.447C395.202 124.769 380.956 113.012 377.392 98.8616C374.04 85.5492 379.926 69.2174 401.151 63.8723C424.238 58.0582 430.443 78.374 431.217 81.4461C432.295 85.7284 431.417 89.7114 426.394 92.9564C422.394 95.5478 415.763 98.3066 410.969 99.7119C409.479 100.087 408.849 99.5525 408.196 98.5292C406.305 95.7384 403.012 90.1328 402.919 89.7604C402.661 88.7364 403.288 88.0834 404.428 87.4993C408.988 85.1631 409.592 84.8128 409.264 83.5095C409.053 82.6717 406.534 80.1381 402.624 81.1228C398.156 82.2481 395.417 87.0957 396.87 92.8675C398.535 99.4772 405.251 105.706 416.888 102.775C417.539 102.611 418.284 102.423 418.912 102.166L419.099 102.119C420.402 101.791 422.196 102.23 422.594 103.813C422.828 104.744 422.002 111.684 421.403 115.201C421.033 116.878 420.151 118.486 417.452 119.166Z"/>
</mask>
<path d="M426.394 92.9564L420.968 84.5565L420.957 84.5635L426.394 92.9564ZM410.969 99.7119L413.411 109.409L413.597 109.362L413.781 109.308L410.969 99.7119ZM408.196 98.5292L416.623 93.1459L416.55 93.0321L416.475 92.9202L408.196 98.5292ZM404.428 87.4993L399.868 78.5995L399.868 78.5995L404.428 87.4993ZM418.912 102.166L416.47 92.469L415.781 92.6426L415.124 92.9118L418.912 102.166ZM421.403 115.201L431.169 117.353L431.22 117.118L431.261 116.881L421.403 115.201ZM415.009 109.468L413.892 109.75L418.776 129.144L419.894 128.863L415.009 109.468ZM413.892 109.75C405.654 111.824 399.604 110.425 395.471 107.912C391.205 105.318 388.271 101.111 387.09 96.4196L367.695 101.304C370.077 110.763 376.048 119.509 385.08 125.001C394.244 130.573 405.882 132.391 418.776 129.144L413.892 109.75ZM387.09 96.4196C385.973 91.9857 386.456 87.2902 388.714 83.381C390.884 79.6255 395.223 75.6773 403.593 73.5695L398.709 54.175C385.854 57.4124 376.638 64.3027 371.396 73.3774C366.243 82.2985 365.459 92.4252 367.695 101.304L387.09 96.4196ZM403.593 73.5695C411.543 71.5674 415.205 74.0243 417.328 76.242C420.104 79.1417 421.301 83.0178 421.52 83.8881L440.914 79.004C440.36 76.8023 438.067 68.9844 431.775 62.4118C424.83 55.1571 413.846 50.3631 398.709 54.175L403.593 73.5695ZM421.52 83.8881C421.624 84.3022 421.625 84.4924 421.625 84.5057C421.625 84.5086 421.625 84.4691 421.638 84.3967C421.651 84.3228 421.674 84.233 421.709 84.1369C421.788 83.9213 421.874 83.8274 421.84 83.8669C421.79 83.9246 421.557 84.1758 420.968 84.5565L431.82 101.356C435.707 98.8456 438.853 95.462 440.479 91.0435C442.083 86.6826 441.784 82.4588 440.914 79.004L421.52 83.8881ZM420.957 84.5635C418.006 86.4754 412.338 88.8896 408.156 90.1157L413.781 109.308C419.187 107.724 426.782 104.62 431.831 101.349L420.957 84.5635ZM408.527 90.0146C409.181 89.8499 411.325 89.4812 413.774 90.7175C414.861 91.2661 415.599 91.936 416.033 92.4042C416.245 92.633 416.394 92.8244 416.482 92.9436C416.57 93.0621 416.619 93.1391 416.623 93.1459L399.768 103.912C400.293 104.733 401.818 107.086 404.763 108.572C408.063 110.238 411.267 109.949 413.411 109.409L408.527 90.0146ZM416.475 92.9202C415.694 91.7683 414.516 89.8671 413.473 88.1171C412.963 87.2621 412.524 86.5086 412.222 85.9732C412.066 85.6977 411.975 85.5309 411.936 85.4579C411.913 85.4142 411.942 85.4664 411.995 85.5769C412.02 85.6298 412.084 85.7656 412.162 85.9524C412.196 86.0335 412.43 86.5785 412.616 87.3184L393.221 92.2025C393.414 92.9656 393.659 93.5441 393.711 93.6684C393.807 93.8984 393.895 94.0872 393.95 94.2023C394.063 94.4372 394.174 94.6507 394.253 94.8014C394.42 95.1172 394.616 95.4712 394.812 95.8171C395.212 96.5248 395.732 97.4169 396.294 98.3587C397.393 100.202 398.807 102.499 399.917 104.138L416.475 92.9202ZM412.616 87.3184C412.854 88.2622 412.977 89.5052 412.713 90.9084C412.446 92.3242 411.861 93.495 411.213 94.3786C410.601 95.2129 409.982 95.7276 409.628 95.9902C409.271 96.2544 409.018 96.3836 408.988 96.3991L399.868 78.5995C398.864 79.114 396.745 80.2886 395.085 82.5511C392.997 85.3989 392.39 88.8994 393.221 92.2025L412.616 87.3184ZM408.988 96.3991C410.74 95.5014 413.238 94.2726 414.915 92.9346C415.987 92.0797 417.863 90.3354 418.802 87.4343C419.744 84.5236 419.21 82.0555 418.961 81.0675L399.567 85.9516C399.482 85.6152 398.996 83.6796 399.774 81.2742C400.55 78.8784 402.052 77.612 402.443 77.2996C402.807 77.0096 402.944 76.9753 402.327 77.3153C401.792 77.6103 401.041 77.9986 399.868 78.5995L408.988 96.3991ZM418.961 81.0675C418.27 78.3198 416.624 76.4706 415.896 75.7132C414.85 74.626 413.559 73.6266 412.064 72.8234C408.954 71.1527 404.8 70.2627 400.182 71.4255L405.066 90.82C404.359 90.9982 403.419 90.8826 402.599 90.442C402.249 90.2539 401.871 89.9835 401.48 89.5761C401.284 89.3731 401.01 89.057 400.715 88.6081C400.492 88.2669 399.918 87.3433 399.567 85.9516L418.961 81.0675ZM400.182 71.4255C389.199 74.1915 384.683 85.4201 387.173 95.3096L406.568 90.4255C406.368 89.633 406.588 89.4979 406.428 89.8092C406.355 89.9528 406.208 90.1648 405.953 90.3726C405.693 90.5848 405.382 90.7406 405.066 90.82L400.182 71.4255ZM387.173 95.3096C388.584 100.911 392.153 106.448 397.972 109.96C403.94 113.563 411.341 114.484 419.33 112.472L414.446 93.0779C410.798 93.9966 409.022 93.2692 408.307 92.8375C407.443 92.3159 406.821 91.4333 406.568 90.4255L387.173 95.3096ZM419.33 112.472C419.824 112.348 421.293 111.997 422.701 111.421L415.124 92.9118C415.209 92.877 415.255 92.8617 415.25 92.8634C415.247 92.8646 415.215 92.8751 415.145 92.8951C414.985 92.9412 414.796 92.9897 414.446 93.0779L419.33 112.472ZM421.354 111.863L421.541 111.817L416.657 92.4221L416.47 92.469L421.354 111.863ZM421.541 111.817C420.321 112.124 418.916 112.117 417.445 111.524C415.726 110.83 413.619 109.125 412.897 106.255L432.291 101.371C431.17 96.9189 427.967 94.2021 424.926 92.9754C422.133 91.8493 419.18 91.7868 416.657 92.4221L421.541 111.817ZM412.897 106.255C412.691 105.436 412.654 104.811 412.647 104.704C412.64 104.592 412.637 104.509 412.636 104.463C412.635 104.415 412.635 104.386 412.635 104.379C412.635 104.369 412.635 104.404 412.631 104.495C412.627 104.582 412.621 104.699 412.612 104.848C412.572 105.472 412.489 106.371 412.371 107.443C412.135 109.591 411.804 112.003 411.545 113.521L431.261 116.881C431.601 114.882 431.983 112.066 432.251 109.631C432.385 108.413 432.503 107.182 432.57 106.133C432.604 105.619 432.632 105.038 432.635 104.472C432.636 104.269 432.669 102.87 432.291 101.371L412.897 106.255ZM411.637 113.048C411.66 112.945 411.876 112.009 412.746 111.005C413.698 109.908 414.715 109.543 415.009 109.468L419.894 128.863C422.888 128.109 425.696 126.599 427.856 124.109C429.935 121.712 430.776 119.133 431.169 117.353L411.637 113.048Z" fill="white" mask="url(#path-14-outside-7_241_160)"/>
<mask id="path-16-outside-8_241_160" maskUnits="userSpaceOnUse" x="292.023" y="48.6844" width="93.8463" height="85.429" fill="black">
<rect fill="white" x="292.023" y="48.6844" width="93.8463" height="85.429"/>
<path d="M365.698 93.6185L365.499 96.7803C365.162 102.146 366.136 106.535 369.836 110.423C370.38 110.939 371.278 111.957 371.212 113.011C371.176 113.586 370.852 114.143 370.151 114.579C370.139 114.771 360.226 120.977 360.226 120.977C359.22 121.683 358.244 121.91 357.381 121.856C355.657 121.748 340.646 115.706 341.719 98.6512L341.924 95.3936C342.557 85.3335 337.936 80.8105 330.966 79.9874L326.958 114.652C326.897 115.61 325.981 116.418 325.023 116.358L324.831 116.346L305.729 114.183C304.586 114.015 303.873 113.104 303.946 111.954L309.666 62.2954C309.828 61.2476 310.745 60.4395 311.703 60.4998L311.894 60.5118L322.589 61.7616C326.374 61.2301 329.943 61.0699 333.392 61.2868C352.842 62.5101 366.849 75.3187 365.698 93.6185Z"/>
</mask>
<path d="M369.836 110.423L362.591 117.317L362.773 117.507L362.964 117.689L369.836 110.423ZM370.151 114.579L364.861 106.093L360.494 108.816L360.171 113.952L370.151 114.579ZM360.226 120.977L354.92 112.501L354.697 112.64L354.482 112.792L360.226 120.977ZM330.966 79.9874L332.138 70.0564L322.183 68.8807L321.032 78.8388L330.966 79.9874ZM326.958 114.652L317.024 113.504L316.994 113.763L316.977 114.024L326.958 114.652ZM324.831 116.346L323.706 126.282L323.954 126.311L324.203 126.326L324.831 116.346ZM305.729 114.183L304.275 124.076L304.439 124.1L304.604 124.119L305.729 114.183ZM303.946 111.954L294.011 110.81L293.982 111.068L293.965 111.327L303.946 111.954ZM309.666 62.2954L299.784 60.7667L299.754 60.9584L299.732 61.1511L309.666 62.2954ZM311.894 60.5118L313.055 50.5794L312.789 50.5483L312.522 50.5315L311.894 60.5118ZM322.589 61.7616L321.428 71.694L322.706 71.8433L323.98 71.6645L322.589 61.7616ZM355.718 92.9908L355.519 96.1525L375.48 97.408L375.679 94.2462L355.718 92.9908ZM355.519 96.1525C355.068 103.325 356.391 110.801 362.591 117.317L377.08 103.53C375.881 102.27 375.256 100.966 375.48 97.408L355.519 96.1525ZM362.964 117.689C362.908 117.636 362.623 117.371 362.295 116.85C362.036 116.439 361.078 114.825 361.232 112.383L381.192 113.639C381.412 110.143 380.039 107.493 379.211 106.181C378.314 104.758 377.308 103.726 376.707 103.158L362.964 117.689ZM361.232 112.383C361.322 110.948 361.784 109.568 362.551 108.39C363.298 107.243 364.18 106.518 364.861 106.093L375.441 123.066C378.365 121.243 380.918 118 381.192 113.639L361.232 112.383ZM360.171 113.952C360.249 112.706 360.546 111.718 360.784 111.081C361.029 110.426 361.3 109.91 361.503 109.56C361.897 108.883 362.287 108.398 362.489 108.157C362.904 107.665 363.272 107.327 363.397 107.213C363.695 106.943 363.932 106.763 363.967 106.737C364.088 106.644 364.139 106.612 364.038 106.681C363.873 106.795 363.571 106.997 363.123 107.29C362.249 107.862 361.053 108.627 359.822 109.409C358.599 110.186 357.373 110.96 356.45 111.54C355.99 111.83 355.606 112.071 355.338 112.239C355.204 112.323 355.099 112.389 355.027 112.434C354.992 112.456 354.965 112.473 354.947 112.484C354.937 112.49 354.931 112.494 354.926 112.497C354.924 112.498 354.922 112.499 354.921 112.5C354.921 112.5 354.92 112.501 354.92 112.501C354.92 112.501 354.92 112.501 354.92 112.501C354.92 112.501 354.92 112.501 360.226 120.977C365.532 129.453 365.533 129.453 365.533 129.453C365.533 129.453 365.533 129.453 365.533 129.453C365.534 129.452 365.534 129.452 365.535 129.452C365.536 129.451 365.538 129.45 365.541 129.448C365.546 129.445 365.553 129.44 365.563 129.434C365.582 129.422 365.611 129.404 365.648 129.381C365.722 129.335 365.829 129.267 365.967 129.181C366.241 129.009 366.632 128.764 367.1 128.469C368.037 127.879 369.29 127.089 370.547 126.291C371.795 125.497 373.08 124.675 374.068 124.03C374.551 123.714 375.025 123.4 375.405 123.137C375.576 123.019 375.841 122.834 376.109 122.629C376.217 122.546 376.511 122.321 376.846 122.016C376.991 121.885 377.374 121.532 377.798 121.028C378.005 120.781 378.399 120.291 378.795 119.61C379.085 119.111 379.987 117.504 380.132 115.207L360.171 113.952ZM354.482 112.792C354.821 112.554 355.318 112.285 355.969 112.096C356.621 111.907 357.315 111.832 358.009 111.876L356.754 131.836C359.984 132.04 363.191 131.113 365.971 129.162L354.482 112.792ZM358.009 111.876C358.879 111.931 359.463 112.096 359.48 112.101C359.623 112.139 359.663 112.157 359.592 112.132C359.457 112.082 359.129 111.949 358.665 111.709C357.73 111.223 356.531 110.448 355.402 109.371C353.318 107.384 351.38 104.362 351.699 99.2789L331.739 98.0235C330.986 109.994 336.017 118.521 341.6 123.846C344.305 126.425 347.116 128.247 349.446 129.457C350.615 130.064 351.735 130.555 352.746 130.923C353.409 131.165 354.994 131.726 356.754 131.836L358.009 111.876ZM351.699 99.2789L351.904 96.0214L331.944 94.7659L331.739 98.0235L351.699 99.2789ZM351.904 96.0214C352.316 89.4745 351.117 83.1113 347.174 78.0678C343.154 72.9257 337.488 70.6882 332.138 70.0564L329.793 89.9183C330.619 90.0159 331.067 90.1882 331.26 90.2836C331.352 90.3294 331.391 90.3603 331.399 90.3668C331.406 90.372 331.409 90.3746 331.417 90.3855C331.419 90.3871 331.588 90.5934 331.746 91.2353C331.91 91.9089 332.052 93.0374 331.944 94.7659L351.904 96.0214ZM321.032 78.8388L317.024 113.504L336.891 115.801L340.899 81.1359L321.032 78.8388ZM316.977 114.024C317.136 111.5 318.365 109.575 319.714 108.386C321.062 107.197 323.126 106.219 325.65 106.378L324.395 126.338C330.865 126.745 336.531 121.75 336.938 115.28L316.977 114.024ZM325.65 106.378L325.459 106.366L324.203 126.326L324.395 126.338L325.65 106.378ZM325.956 106.41L306.855 104.246L304.604 124.119L323.706 126.282L325.956 106.41ZM307.184 104.289C308.959 104.55 310.838 105.489 312.209 107.213C313.565 108.919 314.032 110.897 313.926 112.582L293.965 111.327C293.577 117.499 297.821 123.128 304.275 124.076L307.184 104.289ZM313.88 113.099L319.6 63.4398L299.732 61.1511L294.011 110.81L313.88 113.099ZM319.549 63.8242C319.257 65.7113 318.308 67.3291 316.999 68.483C315.701 69.6279 313.642 70.6415 311.075 70.48L312.331 50.5195C305.414 50.0845 300.608 55.4363 299.784 60.7667L319.549 63.8242ZM311.075 70.48L311.267 70.4921L312.522 50.5315L312.331 50.5195L311.075 70.48ZM310.734 70.4442L321.428 71.694L323.75 51.8292L313.055 50.5794L310.734 70.4442ZM323.98 71.6645C327.175 71.2157 330.064 71.0973 332.764 71.2671L334.02 51.3065C329.822 51.0425 325.572 51.2446 321.199 51.8588L323.98 71.6645ZM332.764 71.2671C340.504 71.7539 346.481 74.497 350.291 78.2102C353.978 81.8037 356.112 86.7301 355.718 92.9908L375.679 94.2462C376.436 82.2071 372.142 71.5793 364.25 63.8878C356.482 56.3159 345.73 52.0431 334.02 51.3065L332.764 71.2671Z" fill="white" mask="url(#path-16-outside-8_241_160)"/>
<mask id="path-18-outside-9_241_160" maskUnits="userSpaceOnUse" x="240.374" y="21.0581" width="67.4195" height="115.65" fill="black">
<rect fill="white" x="240.374" y="21.0581" width="67.4195" height="115.65"/>
<path d="M282.618 121.364L262.638 120.031L262.439 120.008C261.347 119.88 260.657 118.893 260.685 117.789L263.866 69.1287C264.006 67.9368 264.905 67.1359 266.108 67.1762L286.089 68.5089L286.287 68.5322C287.281 68.6485 288.07 69.647 287.954 70.6403L284.761 119.4L284.738 119.599C284.622 120.592 283.623 121.381 282.618 121.364ZM291.671 52.6505C290.729 60.6955 283.406 66.4832 275.361 65.5412C267.217 64.5875 261.429 57.2648 262.371 49.2197C263.325 41.0754 270.648 35.2877 278.792 36.2414C286.837 37.1834 292.625 44.5061 291.671 52.6505Z"/>
</mask>
<path d="M282.618 121.364L281.82 133.337L282.117 133.357L282.416 133.362L282.618 121.364ZM262.638 120.031L261.242 131.95L261.54 131.985L261.839 132.005L262.638 120.031ZM260.685 117.789L248.711 117.006L248.695 117.242L248.689 117.478L260.685 117.789ZM263.866 69.1287L251.947 67.7331L251.912 68.0388L251.892 68.3459L263.866 69.1287ZM266.108 67.1762L266.907 55.2028L266.708 55.1895L266.509 55.1829L266.108 67.1762ZM286.089 68.5089L287.484 56.5904L287.187 56.5555L286.888 56.5355L286.089 68.5089ZM287.954 70.6403L276.035 69.2447L275.999 69.5498L275.979 69.8563L287.954 70.6403ZM284.761 119.4L296.68 120.795L296.716 120.49L296.736 120.184L284.761 119.4ZM283.417 109.391L263.436 108.058L261.839 132.005L281.82 133.337L283.417 109.391ZM264.033 108.113L263.835 108.089L261.044 131.927L261.242 131.95L264.033 108.113ZM263.835 108.089C270.212 108.836 272.777 114.407 272.681 118.1L248.689 117.478C248.536 123.379 252.481 130.924 261.044 131.927L263.835 108.089ZM272.66 118.572L275.84 69.9114L251.892 68.3459L248.711 117.006L272.66 118.572ZM275.785 70.5242C275.538 72.6269 274.524 74.9385 272.498 76.7149C270.451 78.5087 267.951 79.2445 265.707 79.1695L266.509 55.1829C258.869 54.9274 252.789 60.5429 251.947 67.7331L275.785 70.5242ZM265.31 79.1496L285.29 80.4823L286.888 56.5355L266.907 55.2028L265.31 79.1496ZM284.693 80.4275L284.892 80.4508L287.683 56.6136L287.484 56.5904L284.693 80.4275ZM284.892 80.4508C281.802 80.089 279.506 78.4494 278.122 76.6983C276.738 74.9472 275.673 72.3346 276.035 69.2447L299.872 72.0358C300.759 64.4601 295.259 57.5007 287.683 56.6136L284.892 80.4508ZM275.979 69.8563L272.787 118.616L296.736 120.184L299.928 71.4242L275.979 69.8563ZM272.843 118.004L272.82 118.203L296.657 120.994L296.68 120.795L272.843 118.004ZM272.82 118.203C273.184 115.088 274.831 112.868 276.407 111.578C277.974 110.293 280.184 109.321 282.821 109.366L282.416 133.362C288.876 133.471 295.744 128.79 296.657 120.994L272.82 118.203ZM279.752 51.2549C279.581 52.7175 278.219 53.7939 276.757 53.6226L273.966 77.4598C288.593 79.1725 301.877 68.6736 303.59 54.0461L279.752 51.2549ZM276.757 53.6226C275.142 53.4336 274.125 52.0253 274.29 50.6153L250.453 47.8242C248.734 62.5042 259.292 75.7415 273.966 77.4598L276.757 53.6226ZM274.29 50.6153C274.473 49.0534 275.834 47.977 277.396 48.1599L280.188 24.3228C265.461 22.5984 252.177 33.0973 250.453 47.8242L274.29 50.6153ZM277.396 48.1599C278.806 48.325 279.942 49.6403 279.752 51.2549L303.59 54.0461C305.308 39.372 294.868 26.0417 280.188 24.3228L277.396 48.1599Z" fill="white" mask="url(#path-18-outside-9_241_160)"/>
<mask id="path-20-outside-10_241_160" maskUnits="userSpaceOnUse" x="192.704" y="31.6022" width="70.7094" height="105.126" fill="black">
<rect fill="white" x="192.704" y="31.6022" width="70.7094" height="105.126"/>
<path d="M209.68 122.142L206.417 108.394C206.322 108.212 206.317 107.936 206.314 107.752C206.291 106.372 207.663 105.889 208.215 105.88L208.583 105.874C214.838 105.771 221.591 102.347 221.495 96.5515C221.445 93.5159 219.743 90.7836 214.648 83.1388C210.783 77.4979 209.042 72.374 208.967 67.8666C208.727 53.3326 225.149 44.872 240.603 44.6166C244.191 44.5573 246.037 44.8948 246.621 46.8174L250.065 60.3783C250.162 60.6528 250.166 60.9288 250.169 61.1127C250.194 62.5845 248.823 63.1593 248.271 63.1684L247.719 63.1775C241.74 63.2763 236.165 65.5768 236.252 70.8201C236.303 73.9476 238.675 78.233 243.005 84.1423C246.963 89.7816 248.704 94.9056 248.78 99.5049C249.032 114.775 230.875 124.092 214.962 124.355C214.042 124.37 213.214 124.384 212.292 124.307C211.097 124.327 209.976 123.333 209.68 122.142Z"/>
</mask>
<path d="M209.68 122.142L198.005 124.914L198.019 124.974L198.034 125.033L209.68 122.142ZM206.417 108.394L218.092 105.623L217.748 104.173L217.06 102.851L206.417 108.394ZM214.648 83.1388L224.634 76.4838L224.591 76.4192L224.547 76.3552L214.648 83.1388ZM246.621 46.8174L258.251 43.8631L258.183 43.5951L258.103 43.3305L246.621 46.8174ZM250.065 60.3783L238.434 63.3326L238.567 63.8537L238.745 64.3608L250.065 60.3783ZM243.005 84.1423L252.827 77.2488L252.757 77.1483L252.684 77.0493L243.005 84.1423ZM212.292 124.307L213.289 112.349L212.693 112.299L212.094 112.309L212.292 124.307ZM221.356 119.371L218.092 105.623L194.741 111.166L198.005 124.914L221.356 119.371ZM217.06 102.851C217.573 103.837 217.843 104.706 217.991 105.285C218.142 105.878 218.213 106.368 218.25 106.682C218.316 107.25 218.315 107.712 218.312 107.554L194.316 107.95C194.316 107.975 194.319 108.668 194.412 109.465C194.49 110.131 194.732 111.938 195.774 113.937L217.06 102.851ZM218.312 107.554C218.379 111.573 216.15 114.538 214.056 116.044C213.126 116.713 212.218 117.121 211.45 117.376C210.756 117.605 209.729 117.857 208.414 117.879L208.017 93.8818C205.305 93.9267 202.446 94.8312 200.042 96.5601C197.13 98.6549 194.226 102.551 194.316 107.95L218.312 107.554ZM208.414 117.879L208.782 117.872L208.385 93.8758L208.017 93.8818L208.414 117.879ZM208.782 117.872C213.796 117.79 219.32 116.417 223.948 113.417C228.684 110.346 233.63 104.634 233.493 96.3531L209.497 96.7498C209.48 95.7229 209.799 94.7488 210.247 94.038C210.64 93.4149 210.981 93.2213 210.893 93.2777C210.814 93.329 210.522 93.491 209.997 93.6391C209.482 93.7842 208.915 93.867 208.385 93.8758L208.782 117.872ZM233.493 96.3531C233.426 92.2625 232.135 88.9159 230.569 85.9586C229.156 83.2906 227.073 80.1435 224.634 76.4838L204.663 89.7938C207.319 93.7789 208.634 95.8204 209.358 97.1886C209.93 98.2675 209.514 97.8049 209.497 96.7498L233.493 96.3531ZM224.547 76.3552C221.605 72.0629 220.991 69.1936 220.966 67.6683L196.969 68.0649C197.093 75.5543 199.96 82.9329 204.75 89.9224L224.547 76.3552ZM220.966 67.6683C220.932 65.6329 221.863 63.309 225.509 60.9032C229.311 58.3946 234.968 56.7114 240.802 56.6149L240.405 32.6182C230.785 32.7772 220.504 35.452 212.291 40.871C203.922 46.3929 196.762 55.5663 196.969 68.0649L220.966 67.6683ZM240.802 56.6149C241.539 56.6027 241.901 56.6178 242.045 56.629C242.219 56.6425 241.785 56.6302 241.052 56.3935C240.247 56.1336 238.904 55.5449 237.595 54.2785C236.238 52.9664 235.498 51.4876 235.138 50.3043L258.103 43.3305C257.451 41.186 256.261 38.944 254.282 37.0297C252.351 35.1611 250.213 34.1312 248.425 33.5541C245.333 32.5559 242.135 32.5896 240.405 32.6182L240.802 56.6149ZM234.99 49.7717L238.434 63.3326L261.696 57.4241L258.251 43.8631L234.99 49.7717ZM238.745 64.3608C238.402 63.3856 238.275 62.5648 238.221 62.0633C238.169 61.5834 238.169 61.1979 238.171 61.311L262.168 60.9144C262.166 60.824 262.205 58.7276 261.385 56.3959L238.745 64.3608ZM238.171 61.311C238.112 57.7422 239.941 54.9269 241.913 53.3399C242.798 52.6285 243.704 52.1509 244.542 51.8326C245.27 51.556 246.478 51.1964 248.073 51.17L248.469 75.1667C251.678 75.1137 254.687 73.8661 256.959 72.0382C259.749 69.7936 262.251 65.9551 262.168 60.9144L238.171 61.311ZM248.073 51.17L247.521 51.1791L247.917 75.1759L248.469 75.1667L248.073 51.17ZM247.521 51.1791C243.331 51.2484 238.188 52.065 233.663 54.7048C228.638 57.6369 224.123 63.1549 224.253 71.0184L248.25 70.6217C248.266 71.5716 247.995 72.7566 247.307 73.8433C246.677 74.8401 245.986 75.3016 245.758 75.4345C245.547 75.5579 245.605 75.48 246.068 75.374C246.509 75.2732 247.137 75.1888 247.917 75.1759L247.521 51.1791ZM224.253 71.0184C224.324 75.3059 225.895 79.1133 227.369 81.9592C228.926 84.9625 231.017 88.0843 233.326 91.2352L252.684 77.0493C250.663 74.291 249.403 72.3155 248.678 70.9169C247.872 69.3609 248.231 69.4618 248.25 70.6217L224.253 71.0184ZM233.182 91.0357C236.143 95.2542 236.755 98.0902 236.781 99.7033L260.778 99.3066C260.653 91.7209 257.782 84.3091 252.827 77.2488L233.182 91.0357ZM236.781 99.7033C236.818 101.905 235.679 104.679 231.341 107.53C226.949 110.418 220.702 112.259 214.763 112.357L215.16 136.354C225.135 136.189 235.923 133.24 244.525 127.585C253.181 121.895 260.994 112.374 260.778 99.3066L236.781 99.7033ZM214.763 112.357C213.777 112.373 213.526 112.369 213.289 112.349L211.296 136.266C212.902 136.4 214.307 136.368 215.16 136.354L214.763 112.357ZM212.094 112.309C214.909 112.262 217.068 113.391 218.401 114.519C219.731 115.644 220.828 117.242 221.327 119.251L198.034 125.033C199.438 130.692 204.779 136.433 212.491 136.306L212.094 112.309Z" fill="white" mask="url(#path-20-outside-10_241_160)"/>
<mask id="path-22-outside-11_241_160" maskUnits="userSpaceOnUse" x="113.795" y="43.9472" width="97.8363" height="94.0146" fill="black">
<rect fill="white" x="113.795" y="43.9472" width="97.8363" height="94.0146"/>
<path d="M197.611 92.4782C196.693 113.518 174.816 124.346 159.494 123.677C141.907 122.909 127.033 109.504 127.863 90.5139C128.833 68.2871 145.953 57.4676 164.943 58.2967C188.788 59.3378 198.224 78.4515 197.611 92.4782ZM162.983 103.182C170.644 103.516 174.37 97.4091 174.639 91.259C174.728 89.2089 174.754 78.724 163.748 78.2435C154.685 77.8478 151.761 85.3955 151.549 90.2508C151.224 97.6957 156.833 102.913 162.983 103.182Z"/>
</mask>
<path d="M185.623 91.9547C185.361 97.9606 182.223 102.78 177.069 106.39C171.675 110.169 164.968 111.905 160.018 111.689L158.971 135.666C169.342 136.119 181.234 132.775 190.839 126.047C200.683 119.151 208.943 108.036 209.6 93.0016L185.623 91.9547ZM160.018 111.689C148.06 111.167 139.353 102.456 139.851 91.0373L115.874 89.9905C114.714 116.551 135.754 134.652 158.971 135.666L160.018 111.689ZM139.851 91.0373C140.195 83.1676 143.232 78.2347 147.108 75.1571C151.219 71.8929 157.255 69.9724 164.42 70.2853L165.467 46.3081C153.641 45.7918 141.623 48.8665 132.184 56.3616C122.509 64.0431 116.501 75.6334 115.874 89.9905L139.851 91.0373ZM164.42 70.2853C172.877 70.6545 177.944 74.0466 181.033 77.9567C184.384 82.1993 185.813 87.608 185.623 91.9547L209.6 93.0016C210.023 83.3217 207.039 72.1602 199.865 63.0791C192.428 53.6653 180.855 46.98 165.467 46.3081L164.42 70.2853ZM162.46 115.17C169.973 115.499 176.384 112.514 180.713 107.44C184.735 102.725 186.403 96.9109 186.627 91.7824L162.65 90.7355C162.631 91.1724 162.551 91.527 162.469 91.7607C162.386 91.994 162.342 91.9954 162.454 91.8641C162.513 91.7946 162.609 91.6966 162.748 91.5919C162.89 91.4857 163.05 91.3915 163.217 91.3188C163.385 91.2459 163.518 91.2126 163.594 91.1994C163.666 91.1866 163.645 91.1994 163.507 91.1933L162.46 115.17ZM186.627 91.7824C186.696 90.214 186.834 84.7249 184.246 79.1267C182.866 76.1422 180.604 72.8976 176.995 70.3664C173.341 67.8044 169 66.4614 164.271 66.255L163.225 90.2321C163.647 90.2505 163.786 90.3062 163.723 90.286C163.65 90.2626 163.457 90.1862 163.216 90.0169C162.978 89.8501 162.787 89.6597 162.651 89.4881C162.522 89.3252 162.469 89.2136 162.462 89.1986C162.456 89.1871 162.483 89.2429 162.519 89.3809C162.554 89.5177 162.587 89.6902 162.612 89.8903C162.663 90.3064 162.654 90.6428 162.65 90.7355L186.627 91.7824ZM164.271 66.255C155.771 65.8838 149.067 69.4664 144.837 74.9368C141.049 79.8338 139.743 85.5284 139.56 89.7274L163.537 90.7743C163.541 90.693 163.552 90.5638 163.58 90.4042C163.608 90.2458 163.647 90.0896 163.692 89.9475C163.738 89.8053 163.783 89.7034 163.814 89.6414C163.845 89.5799 163.853 89.5782 163.821 89.6193C163.788 89.6629 163.712 89.7507 163.586 89.8543C163.457 89.961 163.304 90.059 163.143 90.1346C162.981 90.2105 162.87 90.2359 162.845 90.2405C162.825 90.2443 162.94 90.2197 163.225 90.2321L164.271 66.255ZM139.56 89.7274C138.934 104.069 149.968 114.625 162.46 115.17L163.507 91.1933C163.582 91.1966 163.613 91.2125 163.609 91.2106C163.604 91.2084 163.593 91.2012 163.585 91.1925C163.582 91.1897 163.579 91.1868 163.572 91.1693C163.568 91.158 163.558 91.1279 163.549 91.0724C163.541 91.0172 163.531 90.9203 163.537 90.7743L139.56 89.7274Z" fill="white" mask="url(#path-22-outside-11_241_160)"/>
<mask id="path-24-outside-12_241_160" maskUnits="userSpaceOnUse" x="0.0383512" y="-0.192175" width="138.356" height="148.263" fill="black">
<rect fill="white" x="0.0383512" y="-0.192175" width="138.356" height="148.263"/>
<path d="M113.992 86.125L124.665 104.787C125.234 105.762 125.663 106.738 125.672 107.718C125.684 108.978 125.136 110.243 123.61 111.797C108.353 127.339 90.6378 134.364 73.8385 134.519C41.7799 134.816 13.2728 110.439 12.9433 74.8809C12.5502 32.4627 44.1524 13.129 77.331 12.8216C89.7904 12.7061 101.577 15.537 110.169 21.0577C111.155 21.7485 111.869 23.282 111.882 24.6819C111.886 25.1019 111.889 25.3819 111.753 25.8032L104.118 47.9949C103.708 49.1187 102.32 50.3916 100.78 50.4059C100.22 50.4111 99.659 50.2763 99.2364 50.0002C94.8707 47.2405 87.0089 44.9333 79.0293 45.0072C61.39 45.1707 51.2717 56.1849 51.4299 73.2642C51.583 89.7835 64.1307 99.1876 78.8301 99.0514C88.6296 98.9606 99.649 94.5183 108.382 85.057C108.936 84.4918 109.774 84.204 110.474 84.1975C111.874 84.1846 113.421 85.0103 113.992 86.125Z"/>
</mask>
<path d="M113.992 86.125L103.309 91.5908L103.436 91.8399L103.575 92.0827L113.992 86.125ZM124.665 104.787L114.249 110.745L114.275 110.791L114.302 110.837L124.665 104.787ZM123.61 111.797L132.174 120.203L132.174 120.203L123.61 111.797ZM110.169 21.0577L117.053 11.2286L116.857 11.0914L116.656 10.9622L110.169 21.0577ZM111.753 25.8032L123.1 29.707L123.137 29.6L123.172 29.4922L111.753 25.8032ZM104.118 47.9949L115.393 52.104L115.43 52.0017L115.465 51.8987L104.118 47.9949ZM99.2364 50.0002L105.8 39.9543L105.724 39.905L105.648 39.8568L99.2364 50.0002ZM108.382 85.057L99.8181 76.6507L99.6888 76.7824L99.5636 76.918L108.382 85.057ZM103.575 92.0827L114.249 110.745L135.082 98.8293L124.408 80.1674L103.575 92.0827ZM114.302 110.837C114.393 110.994 114.27 110.81 114.116 110.391C113.955 109.953 113.684 109.055 113.673 107.829L137.672 107.607C137.633 103.375 135.845 100.136 135.028 98.737L114.302 110.837ZM113.673 107.829C113.661 106.54 113.969 105.334 114.435 104.38C114.839 103.555 115.21 103.224 115.047 103.391L132.174 120.203C134.995 117.329 137.723 113.171 137.672 107.607L113.673 107.829ZM115.047 103.391C101.857 116.827 87.1194 122.396 73.7273 122.52L73.9497 146.519C94.1562 146.331 114.85 137.851 132.174 120.203L115.047 103.391ZM73.7273 122.52C47.7975 122.76 25.2063 103.213 24.9427 74.7697L0.943777 74.9921C1.33922 117.665 35.7623 146.873 73.9497 146.519L73.7273 122.52ZM24.9427 74.7697C24.7768 56.8657 31.22 44.9188 40.3085 37.2123C49.7111 29.2396 62.9926 24.955 77.4422 24.8211L77.2198 0.822105C58.4907 0.995662 39.3819 6.53162 24.787 18.9071C9.878 31.5489 0.716611 50.4779 0.943777 74.9921L24.9427 74.7697ZM77.4422 24.8211C88.2353 24.7211 97.5548 27.2162 103.682 31.1531L116.656 10.9622C105.6 3.85785 91.3455 0.691206 77.2198 0.822105L77.4422 24.8211ZM103.285 30.8867C101.618 29.7193 100.855 28.3979 100.533 27.7147C100.176 26.9547 99.894 25.9911 99.8829 24.7931L123.882 24.5707C123.858 21.9729 123.213 19.5425 122.248 17.4931C121.319 15.5205 119.706 13.0869 117.053 11.2286L103.285 30.8867ZM99.8829 24.7931C99.8841 24.93 99.883 24.8779 99.8841 24.8006C99.8857 24.6971 99.8913 24.4647 99.919 24.1587C99.984 23.4422 100.13 22.7438 100.334 22.1142L123.172 29.4922C123.952 27.0781 123.887 25.102 123.882 24.5707L99.8829 24.7931ZM100.405 21.8993L92.7708 44.091L115.465 51.8987L123.1 29.707L100.405 21.8993ZM92.8435 43.8858C93.5338 41.9916 94.6202 40.8345 95.4956 40.1522C96.4321 39.4221 98.1822 38.4295 100.669 38.4064L100.891 62.4054C104.918 62.3681 108.132 60.7318 110.25 59.0808C112.307 57.4775 114.293 55.122 115.393 52.104L92.8435 43.8858ZM100.669 38.4064C101.889 38.3951 103.798 38.6462 105.8 39.9543L92.6729 60.0461C95.5202 61.9064 98.5513 62.4271 100.891 62.4054L100.669 38.4064ZM105.648 39.8568C99.0232 35.669 88.8109 32.9161 78.9181 33.0078L79.1405 57.0067C81.9808 56.9804 84.8871 57.3836 87.4676 58.0548C90.1281 58.7467 91.9577 59.5956 92.8246 60.1436L105.648 39.8568ZM78.9181 33.0078C67.5807 33.1128 57.2997 36.7762 49.9008 44.4799C42.541 52.1428 39.3292 62.453 39.4304 73.3754L63.4294 73.153C63.3724 66.9961 65.1406 63.2595 67.2103 61.1047C69.2408 58.9905 72.8386 57.0651 79.1405 57.0067L78.9181 33.0078ZM39.4304 73.3754C39.537 84.8721 44.0673 94.6464 51.7429 101.408C59.2557 108.026 69.0574 111.142 78.9413 111.051L78.7189 87.0519C73.9034 87.0965 70.0815 85.5787 67.6074 83.3992C65.296 81.363 63.476 78.1756 63.4294 73.153L39.4304 73.3754ZM78.9413 111.051C92.2099 110.928 106.331 104.971 117.2 93.1959L99.5636 76.918C92.9666 84.0655 85.0494 86.9933 78.7189 87.0519L78.9413 111.051ZM116.945 93.4632C115.848 94.5814 114.685 95.2251 113.749 95.5915C112.818 95.9561 111.76 96.1861 110.585 96.197L110.363 72.1981C106.995 72.2293 102.939 73.4717 99.8181 76.6507L116.945 93.4632ZM110.585 96.197C109.008 96.2116 107.751 95.7912 106.814 95.2818C105.947 94.8108 104.41 93.7428 103.309 91.5908L124.675 80.6592C123.003 77.3925 120.407 75.3543 118.274 74.195C116.07 72.9973 113.34 72.1705 110.363 72.1981L110.585 96.197Z" fill="white" mask="url(#path-24-outside-12_241_160)"/>
<mask id="mask0_241_160" style="mask-type:alpha" maskUnits="userSpaceOnUse" x="12" y="12" width="428" height="124">
<path d="M417.451 119.166L416.334 119.447C395.202 124.769 380.956 113.012 377.392 98.8616C374.04 85.5492 379.926 69.2174 401.151 63.8723C424.238 58.0582 430.443 78.374 431.217 81.4461C432.295 85.7284 431.417 89.7114 426.394 92.9564C422.393 95.5478 415.762 98.3066 410.968 99.7119C409.479 100.087 408.849 99.5525 408.196 98.5292C406.305 95.7384 403.012 90.1328 402.918 89.7604C402.661 88.7364 403.288 88.0834 404.428 87.4993C408.987 85.1631 409.592 84.8128 409.264 83.5095C409.053 82.6717 406.534 80.1381 402.624 81.1228C398.156 82.2481 395.417 87.0957 396.87 92.8675C398.535 99.4772 405.251 105.706 416.888 102.775C417.539 102.611 418.284 102.423 418.912 102.166L419.098 102.119C420.402 101.791 422.195 102.23 422.594 103.813C422.828 104.744 422.002 111.684 421.403 115.201C421.033 116.878 420.151 118.486 417.451 119.166Z" fill="#D63965"/>
<path d="M365.698 93.6185L365.499 96.7803C365.162 102.146 366.136 106.535 369.835 110.423C370.38 110.939 371.278 111.957 371.212 113.011C371.176 113.586 370.852 114.143 370.151 114.579C370.139 114.771 360.226 120.977 360.226 120.977C359.22 121.683 358.243 121.91 357.381 121.856C355.657 121.748 340.646 115.706 341.719 98.6512L341.924 95.3936C342.557 85.3335 337.935 80.8105 330.965 79.9874L326.957 114.652C326.897 115.61 325.981 116.418 325.022 116.358L324.831 116.346L305.729 114.183C304.585 114.015 303.873 113.104 303.945 111.954L309.666 62.2954C309.828 61.2476 310.744 60.4395 311.703 60.4998L311.894 60.5118L322.589 61.7616C326.374 61.2301 329.943 61.0699 333.392 61.2868C352.842 62.5101 366.849 75.3187 365.698 93.6185Z" fill="#D63965"/>
<path d="M282.618 121.364L262.638 120.031L262.439 120.008C261.346 119.88 260.656 118.893 260.685 117.789L263.866 69.1287C264.005 67.9368 264.905 67.1359 266.108 67.1762L286.089 68.5089L286.287 68.5322C287.28 68.6485 288.07 69.647 287.953 70.6403L284.761 119.4L284.738 119.599C284.622 120.592 283.623 121.381 282.618 121.364ZM291.671 52.6505C290.729 60.6955 283.406 66.4832 275.361 65.5412C267.217 64.5875 261.429 57.2648 262.371 49.2197C263.325 41.0754 270.647 35.2877 278.792 36.2414C286.837 37.1834 292.624 44.5061 291.671 52.6505Z" fill="#D63965"/>
<path d="M209.68 122.142L206.417 108.394C206.322 108.212 206.317 107.936 206.314 107.752C206.291 106.372 207.663 105.889 208.215 105.88L208.583 105.874C214.838 105.77 221.591 102.346 221.495 96.5512C221.445 93.5156 219.743 90.7834 214.648 83.1385C210.783 77.4977 209.042 72.3737 208.967 67.8663C208.727 53.3323 225.149 44.8718 240.603 44.6163C244.191 44.557 246.037 44.8946 246.621 46.8172L250.065 60.3781C250.162 60.6525 250.166 60.9285 250.169 61.1125C250.194 62.5843 248.823 63.159 248.271 63.1681L247.719 63.1773C241.74 63.2761 236.165 65.5765 236.252 70.8198C236.303 73.9474 238.675 78.2328 243.005 84.142C246.963 89.7814 248.704 94.9053 248.78 99.5047C249.032 114.775 230.875 124.092 214.962 124.355C214.042 124.37 213.214 124.384 212.292 124.307C211.097 124.327 209.976 123.333 209.68 122.142Z" fill="#D63965"/>
<path d="M197.612 92.4782C196.693 113.518 174.816 124.346 159.494 123.677C141.907 122.909 127.034 109.504 127.863 90.5139C128.833 68.2871 145.954 57.4676 164.943 58.2967C188.789 59.3378 198.224 78.4515 197.612 92.4782ZM162.984 103.182C170.644 103.516 174.37 97.4091 174.639 91.259C174.728 89.2089 174.754 78.724 163.748 78.2435C154.685 77.8478 151.761 85.3955 151.549 90.2508C151.224 97.6957 156.834 102.913 162.984 103.182Z" fill="#D63965"/>
<path d="M113.992 86.125L124.665 104.787C125.234 105.762 125.663 106.738 125.672 107.718C125.684 108.978 125.136 110.243 123.61 111.797C108.353 127.339 90.6378 134.364 73.8385 134.519C41.7799 134.816 13.2728 110.439 12.9433 74.8809C12.5502 32.4627 44.1524 13.129 77.331 12.8216C89.7904 12.7061 101.577 15.537 110.169 21.0577C111.155 21.7485 111.869 23.282 111.882 24.6819C111.886 25.1019 111.889 25.3819 111.753 25.8032L104.118 47.9949C103.708 49.1187 102.32 50.3916 100.78 50.4059C100.22 50.4111 99.659 50.2763 99.2364 50.0002C94.8707 47.2405 87.0089 44.9333 79.0293 45.0072C61.39 45.1707 51.2717 56.1849 51.4299 73.2642C51.583 89.7835 64.1307 99.1876 78.8301 99.0514C88.6296 98.9606 99.649 94.5183 108.382 85.057C108.936 84.4918 109.774 84.204 110.474 84.1975C111.874 84.1846 113.421 85.0103 113.992 86.125Z" fill="#D63965"/>
</mask>
<g mask="url(#mask0_241_160)">
<path d="M-3.11182 -8.37305L458.448 11.7791L451.382 173.625L-10.1782 153.473L-3.11182 -8.37305Z" fill="url(#paint0_linear_241_160)"/>
</g>
<mask id="mask1_241_160" style="mask-type:alpha" maskUnits="userSpaceOnUse" x="12" y="12" width="428" height="124">
<mask id="mask2_241_160" style="mask-type:alpha" maskUnits="userSpaceOnUse" x="12" y="12" width="428" height="124">
<path d="M417.451 119.166L416.334 119.447C395.202 124.769 380.956 113.012 377.392 98.8616C374.04 85.5492 379.926 69.2174 401.151 63.8723C424.238 58.0582 430.443 78.374 431.217 81.4461C432.295 85.7284 431.417 89.7114 426.394 92.9564C422.393 95.5478 415.762 98.3066 410.968 99.7119C409.479 100.087 408.849 99.5525 408.196 98.5292C406.305 95.7384 403.012 90.1328 402.918 89.7604C402.661 88.7364 403.288 88.0834 404.428 87.4993C408.987 85.1631 409.592 84.8128 409.264 83.5095C409.053 82.6717 406.534 80.1381 402.624 81.1228C398.156 82.2481 395.417 87.0957 396.87 92.8675C398.535 99.4772 405.251 105.706 416.888 102.775C417.539 102.611 418.284 102.423 418.912 102.166L419.098 102.119C420.402 101.791 422.195 102.23 422.594 103.813C422.828 104.744 422.002 111.684 421.403 115.201C421.033 116.878 420.151 118.486 417.451 119.166Z" fill="#D63965"/>
<path d="M365.698 93.6185L365.499 96.7803C365.162 102.146 366.136 106.535 369.835 110.423C370.38 110.939 371.278 111.957 371.212 113.011C371.176 113.586 370.852 114.143 370.151 114.579C370.139 114.771 360.226 120.977 360.226 120.977C359.22 121.683 358.243 121.91 357.381 121.856C355.657 121.748 340.646 115.706 341.719 98.6512L341.924 95.3936C342.557 85.3335 337.935 80.8105 330.965 79.9874L326.957 114.652C326.897 115.61 325.981 116.418 325.022 116.358L324.831 116.346L305.729 114.183C304.585 114.015 303.873 113.104 303.945 111.954L309.666 62.2954C309.828 61.2476 310.744 60.4395 311.703 60.4998L311.894 60.5118L322.589 61.7616C326.374 61.2301 329.943 61.0699 333.392 61.2868C352.842 62.5101 366.849 75.3187 365.698 93.6185Z" fill="#D63965"/>
<path d="M282.618 121.364L262.638 120.031L262.439 120.008C261.346 119.88 260.656 118.893 260.685 117.789L263.866 69.1287C264.005 67.9368 264.905 67.1359 266.108 67.1762L286.089 68.5089L286.287 68.5322C287.28 68.6485 288.07 69.647 287.953 70.6403L284.761 119.4L284.738 119.599C284.622 120.592 283.623 121.381 282.618 121.364ZM291.671 52.6505C290.729 60.6955 283.406 66.4832 275.361 65.5412C267.217 64.5875 261.429 57.2648 262.371 49.2197C263.325 41.0754 270.647 35.2877 278.792 36.2414C286.837 37.1834 292.624 44.5061 291.671 52.6505Z" fill="#D63965"/>
<path d="M209.68 122.142L206.417 108.394C206.322 108.212 206.317 107.936 206.314 107.752C206.291 106.372 207.663 105.889 208.215 105.88L208.583 105.874C214.838 105.77 221.591 102.346 221.495 96.5512C221.445 93.5156 219.743 90.7834 214.648 83.1385C210.783 77.4977 209.042 72.3737 208.967 67.8663C208.727 53.3323 225.149 44.8718 240.603 44.6163C244.191 44.557 246.037 44.8946 246.621 46.8172L250.065 60.3781C250.162 60.6525 250.166 60.9285 250.169 61.1125C250.194 62.5843 248.823 63.159 248.271 63.1681L247.719 63.1773C241.74 63.2761 236.165 65.5765 236.252 70.8198C236.303 73.9474 238.675 78.2328 243.005 84.142C246.963 89.7814 248.704 94.9053 248.78 99.5047C249.032 114.775 230.875 124.092 214.962 124.355C214.042 124.37 213.214 124.384 212.292 124.307C211.097 124.327 209.976 123.333 209.68 122.142Z" fill="#D63965"/>
<path d="M197.612 92.4782C196.693 113.518 174.816 124.346 159.494 123.677C141.907 122.909 127.034 109.504 127.863 90.5139C128.833 68.2871 145.954 57.4676 164.943 58.2967C188.789 59.3378 198.224 78.4515 197.612 92.4782ZM162.984 103.182C170.644 103.516 174.37 97.4091 174.639 91.259C174.728 89.2089 174.754 78.724 163.748 78.2435C154.685 77.8478 151.761 85.3955 151.549 90.2508C151.224 97.6957 156.834 102.913 162.984 103.182Z" fill="#D63965"/>
<path d="M113.992 86.125L124.665 104.787C125.234 105.762 125.663 106.738 125.672 107.718C125.684 108.978 125.136 110.243 123.61 111.797C108.353 127.339 90.6378 134.364 73.8385 134.519C41.7799 134.816 13.2728 110.439 12.9433 74.8809C12.5502 32.4627 44.1524 13.129 77.331 12.8216C89.7904 12.7061 101.577 15.537 110.169 21.0577C111.155 21.7485 111.869 23.282 111.882 24.6819C111.886 25.1019 111.889 25.3819 111.753 25.8032L104.118 47.9949C103.708 49.1187 102.32 50.3916 100.78 50.4059C100.22 50.4111 99.659 50.2763 99.2364 50.0002C94.8707 47.2405 87.0089 44.9333 79.0293 45.0072C61.39 45.1707 51.2717 56.1849 51.4299 73.2642C51.583 89.7835 64.1307 99.1876 78.8301 99.0514C88.6296 98.9606 99.649 94.5183 108.382 85.057C108.936 84.4918 109.774 84.204 110.474 84.1975C111.874 84.1846 113.421 85.0103 113.992 86.125Z" fill="#D63965"/>
</mask>
<g mask="url(#mask2_241_160)">
<path d="M8.48389 1.1416L448.065 20.3341L442.176 155.206L2.59527 136.013L8.48389 1.1416Z" fill="url(#paint1_linear_241_160)"/>
</g>
</mask>
<g mask="url(#mask1_241_160)">
<path d="M-8.86205 -37.1513C-8.86205 -37.1513 -19.3491 65.4888 -15.462 68.1609C-14.8341 68.5926 47.7024 31.3812 55.8475 28.2335C63.9925 25.0858 84.931 15.49 106.605 23.443C128.278 31.3959 116.305 64.9053 163.911 74.9914C190.176 80.5562 216.799 55.7801 246.832 78.6119C276.864 101.444 318.593 62.7268 337.66 73.0684C356.727 83.4101 388.723 61.2844 412.589 76.3399C436.455 91.3953 460.908 88.981 461.759 69.4785L463.221 36.0105L471.896 -9.65474L-8.86205 -37.1513Z" fill="#FF87A8" fill-opacity="0.35"/>
<path d="M437.999 172.54C437.999 172.54 443.678 124.931 440.181 122.554C439.617 122.17 403.092 110.458 386.108 109.716C369.124 108.975 371.51 123.092 338.153 107.623C304.796 92.1529 308.052 109.278 274.257 115.31C240.462 121.341 213.815 112.671 194.548 118.369C175.281 124.067 141.037 105.998 127.461 107.432C113.886 108.867 100.223 123.76 59.262 121.971C18.301 120.183 5.27699 88.8486 -6.99181 69.031C-28.9646 33.5388 3.84769 88.3095 2.56771 104.628L1.22187 135.452L-0.566524 176.413L437.999 172.54Z" fill="#FF87A8" fill-opacity="0.25"/>
</g>
<g clip-path="url(#clip1_241_160)">
<path d="M360.296 58.4103C361.419 58.0617 362.495 57.5647 363.523 56.9323C363.51 57.8289 363.589 58.7262 363.76 59.6217C364.112 61.465 364.83 63.1619 365.907 64.6888C367.054 66.3807 368.535 67.7328 370.325 68.7239L372.431 69.8903L373.676 67.8294L374.777 66.0066L376.441 66.7285L378.519 67.6302L379.621 65.65C380.749 63.6204 381.303 61.4497 381.229 59.1778L381.229 59.169L381.229 59.1603C381.191 58.2092 381.048 57.2642 380.806 56.3273C381.705 56.568 382.63 56.7168 383.578 56.7737C385.474 56.8873 387.336 56.6208 389.145 55.9851L389.147 55.9843C391.088 55.3002 392.798 54.2206 394.252 52.7616L396.009 50.9992L394.254 49.2343L392.849 47.82L393.964 46.4594L395.464 44.6288L393.718 43.0308C392.028 41.484 390.04 40.46 387.797 39.9774L387.792 39.9764C386.912 39.7889 386.01 39.6929 385.088 39.6819C385.589 38.8701 386.002 38.0052 386.325 37.0897C386.949 35.3202 387.21 33.493 387.101 31.6271L387.1 31.6009L387.098 31.5749C386.937 29.55 386.332 27.653 385.288 25.9138L384.054 23.8565L381.948 25.005L380.067 26.0304L379.028 24.6192L377.655 22.7544L375.691 23.981C373.727 25.2071 372.176 26.8281 371.087 28.8301L371.083 28.8375C370.962 29.062 370.847 29.2899 370.739 29.521C370.652 29.4156 370.563 29.3112 370.473 29.2079C369.23 27.7895 367.725 26.6801 365.986 25.8816L365.984 25.8809C364.14 25.0355 362.179 24.6188 360.129 24.6255L357.693 24.6335L357.638 27.0686L357.591 29.1274L355.755 29.3185L353.44 29.5593L353.515 31.8858C353.59 34.2038 354.237 36.3489 355.476 38.2616C356.104 39.2337 356.864 40.1189 357.741 40.9213C356.973 41.142 356.221 41.4297 355.488 41.7838C353.779 42.6089 352.288 43.7348 351.029 45.151L351.011 45.1707L350.994 45.1907C349.656 46.7613 348.722 48.5568 348.207 50.5521L347.594 52.927L349.957 53.5853L351.971 54.1463L351.685 55.8327L351.288 58.1802L353.614 58.6915C355.875 59.1887 358.118 59.1019 360.296 58.4103Z" fill="#FFA0B7" stroke="white" stroke-width="5"/>
</g>
<defs>
<linearGradient id="paint0_linear_241_160" x1="315.629" y1="13.9723" x2="308.562" y2="175.818" gradientUnits="userSpaceOnUse">
<stop stop-color="#D63965"/>
<stop offset="1" stop-color="#E76E78"/>
</linearGradient>
<linearGradient id="paint1_linear_241_160" x1="312.09" y1="21.4213" x2="306.201" y2="156.293" gradientUnits="userSpaceOnUse">
<stop stop-color="#D63965"/>
<stop offset="1" stop-color="#E76E78"/>
</linearGradient>
<clipPath id="clip0_241_160">
<rect width="60" height="60" fill="white" transform="translate(358.927 89.1592) rotate(-110.413)"/>
</clipPath>
<clipPath id="clip1_241_160">
<rect width="60" height="60" fill="white" transform="translate(352.927 83.1592) rotate(-110.413)"/>
</clipPath>
</defs>
</svg>
